<svg width="28" height="28" viewBox="0 0 28 28" fill="none" xmlns="http://www.w3.org/2000/svg">
<path d="M22.254 11.5049C21.2323 10.4833 19.9393 9.77574 18.528 9.46594C18.2325 8.13415 17.5846 6.90623 16.652 5.9106C15.7195 4.91496 14.5365 4.1882 13.2269 3.80632C11.9172 3.42445 10.529 3.40148 9.20749 3.73984C7.88594 4.07819 6.67959 4.76543 5.7146 5.72968C4.74961 6.69392 4.06144 7.89975 3.72207 9.22103C3.3827 10.5423 3.40459 11.9305 3.78546 13.2404C4.16633 14.5504 4.89218 15.7339 5.88709 16.6672C6.882 17.6006 8.10943 18.2494 9.44099 18.5459C9.69772 19.6996 10.2195 20.7776 10.965 21.6947C11.7104 22.6117 12.6592 23.3427 13.736 23.8296C14.8129 24.3166 15.9883 24.5461 17.1693 24.5002C18.3502 24.4542 19.5043 24.134 20.54 23.5648C21.5758 22.9956 22.4648 22.1932 23.1368 21.2209C23.8087 20.2487 24.2451 19.1334 24.4114 17.9633C24.5777 16.7932 24.4693 15.6005 24.0949 14.4795C23.7204 13.3586 23.0902 12.3402 22.254 11.5049V11.5049ZM5.23399 11.1159C5.23362 9.75836 5.70398 8.44265 6.56493 7.39298C7.42588 6.34332 8.62415 5.62464 9.95557 5.35942C11.287 5.09419 12.6692 5.29881 13.8667 5.93843C15.0641 6.57804 16.0028 7.61307 16.5227 8.86716C17.0425 10.1212 17.1115 11.5168 16.7178 12.8161C16.3241 14.1153 15.4921 15.2378 14.3636 15.9924C13.235 16.747 11.8797 17.0869 10.5286 16.9543C9.17754 16.8216 7.91425 16.2246 6.95399 15.2649C6.40721 14.7214 5.97365 14.0749 5.67841 13.3627C5.38317 12.6505 5.23212 11.8869 5.23399 11.1159V11.1159ZM21.017 21.0409C19.9154 22.1399 18.423 22.757 16.867 22.757C15.311 22.757 13.8185 22.1399 12.717 21.0409C12.0675 20.3914 11.5815 19.597 11.299 18.7229C12.1253 18.7023 12.9427 18.5469 13.719 18.2629H14.162C14.496 20.0769 15.482 21.0089 17.127 21.0089C18.834 21.0089 20.223 19.8789 20.223 18.4919C20.2158 18.2937 20.132 18.106 19.9893 17.9683C19.8465 17.8306 19.6559 17.7536 19.4575 17.7536C19.2591 17.7536 19.0685 17.8306 18.9257 17.9683C18.7829 18.106 18.6992 18.2937 18.692 18.4919C18.692 18.8949 18.134 19.4779 17.127 19.4779C16.708 19.4779 16.017 19.4739 15.71 18.2639H17.592C17.7661 18.2639 17.9331 18.1948 18.0562 18.0717C18.1793 17.9485 18.2485 17.7816 18.2485 17.6074C18.2485 17.4333 18.1793 17.2663 18.0562 17.1432C17.9331 17.0201 17.7661 16.9509 17.592 16.9509H15.992C16.154 16.8159 16.312 16.6739 16.463 16.5239H17.592C17.766 16.5239 17.9328 16.4548 18.0559 16.3318C18.1789 16.2088 18.248 16.0419 18.248 15.8679C18.248 15.694 18.1789 15.5271 18.0559 15.4041C17.9328 15.2811 17.766 15.2119 17.592 15.2119H17.519C17.721 14.8929 17.899 14.5599 18.051 14.2149C18.2164 14.2769 18.3626 14.3815 18.4746 14.5182C18.5866 14.6548 18.6606 14.8186 18.689 14.9929C18.6962 15.1912 18.7799 15.3789 18.9227 15.5166C19.0655 15.6543 19.2561 15.7313 19.4545 15.7313C19.6529 15.7313 19.8435 15.6543 19.9863 15.5166C20.129 15.3789 20.2128 15.1912 20.22 14.9929C20.191 14.4957 20.0147 14.0183 19.7136 13.6216C19.4125 13.2248 19.0001 12.9266 18.529 12.7649C18.6331 12.2916 18.692 11.8094 18.705 11.3249C19.5767 11.6081 20.369 12.0936 21.017 12.7419C22.1159 13.8433 22.733 15.3356 22.733 16.8914C22.733 18.4473 22.1159 19.9396 21.017 21.0409Z" fill="#1976D2"/>
<path d="M14.245 12.645C14.245 11.522 13.347 10.625 11.918 10.306L10.91 10.056C9.87001 9.82498 9.87001 9.61598 9.87001 9.44998C9.87001 9.11098 10.41 8.63998 11.29 8.63998C11.735 8.61798 12.172 8.76998 12.508 9.06298C12.6235 9.16584 12.6954 9.30891 12.709 9.46298C12.7087 9.56357 12.7283 9.66321 12.7667 9.7562C12.805 9.84919 12.8614 9.93369 12.9324 10.0049C13.0035 10.076 13.0879 10.1325 13.1809 10.1709C13.2738 10.2094 13.3734 10.2291 13.474 10.229C13.677 10.229 13.8717 10.1484 14.0153 10.005C14.1589 9.86154 14.2397 9.66697 14.24 9.46398C14.2353 9.18616 14.1755 8.91203 14.0641 8.65747C13.9527 8.40291 13.7919 8.17298 13.591 7.98098C13.1358 7.54552 12.5577 7.26064 11.935 7.16498V6.67798C11.935 6.50387 11.8658 6.33689 11.7427 6.21377C11.6196 6.09065 11.4526 6.02148 11.2785 6.02148C11.1044 6.02148 10.9374 6.09065 10.8143 6.21377C10.6912 6.33689 10.622 6.50387 10.622 6.67798V7.17398C10.0364 7.22942 9.48821 7.48681 9.07151 7.90205C8.65481 8.31729 8.3955 8.86453 8.33801 9.44998C8.33801 11.052 9.90601 11.402 10.559 11.548L11.568 11.797C12.097 11.915 12.714 12.207 12.714 12.645C12.714 12.928 12.158 13.47 11.288 13.47C10.453 13.47 9.87001 13.035 9.87001 12.645C9.87001 12.4418 9.78931 12.247 9.64566 12.1033C9.502 11.9597 9.30717 11.879 9.10401 11.879C8.90086 11.879 8.70602 11.9597 8.56237 12.1033C8.41872 12.247 8.33801 12.4418 8.33801 12.645C8.38672 13.2376 8.64425 13.7938 9.06474 14.2143C9.48523 14.6347 10.0414 14.8923 10.634 14.941V15.428C10.634 15.602 10.7031 15.7688 10.8261 15.8918C10.9492 16.0149 11.116 16.084 11.29 16.084C11.464 16.084 11.6309 16.0149 11.7539 15.8918C11.8769 15.7688 11.946 15.602 11.946 15.428V14.934C12.533 14.872 13.0812 14.611 13.4994 14.1944C13.9176 13.7779 14.1807 13.2308 14.245 12.644V12.645Z" fill="#1976D2"/>
</svg>
