<svg xmlns="http://www.w3.org/2000/svg" width="94.72" height="116.436" viewBox="0 0 94.72 116.436">
  <g id="Group_973" data-name="Group 973" transform="translate(-22.001 -60)">
    <g id="Group_14" data-name="Group 14" transform="translate(-2)">
      <path id="Path_2130" data-name="Path 2130" d="M12611.09,7707.336l16.326-16.321v-7.375h7.369l2.7-2.7-13.035-13.035h-12.762V7684.5l-11.728,11.72Z" transform="translate(-12569.441 -7596.183)" fill="#003197" fill-rule="evenodd"/>
      <path id="Path_2131" data-name="Path 2131" d="M14251.333,7046.424l13.033-13.033v-12.762h-16.6l-11.711-11.728-11.124,11.12,16.328,16.336h7.38v7.375Z" transform="translate(-14165.495 -6948.901)" fill="#aba17d" fill-rule="evenodd"/>
      <path id="Path_2132" data-name="Path 2132" d="M13298.488,9426.689l-16.332-16.33h-7.368v-7.38l-2.7-2.688-13.033,13.033v12.764h16.582l11.73,11.727Z" transform="translate(-13216.813 -9297.735)" fill="#0056ff" fill-rule="evenodd"/>
      <path id="Path_2133" data-name="Path 2133" d="M15004.425,8673.542h12.762v-16.6l11.727-11.71-11.126-11.118-16.331,16.323v7.378h-7.374l-2.691,2.7Z" transform="translate(-14918.315 -8545.189)" fill="#003197" fill-rule="evenodd"/>
    </g>
    <g id="Group_13" data-name="Group 13" transform="translate(12 5.17)">
      <path id="Path_2134" data-name="Path 2134" d="M11421.215,12197.059h-3.521v13.043h-3.739v-13.043h-3.522v-3.158h10.783Z" transform="translate(-11400.431 -12044.564)" fill="#80868b"/>
      <path id="_1" data-name="1" d="M12336.5,12193.9h5.124a8.8,8.8,0,0,1,6.389,2.234,8.465,8.465,0,0,1,.121,11.537,8.586,8.586,0,0,1-6.387,2.43h-5.247Zm3.74,3.158v9.885h1a5.611,5.611,0,0,0,3.692-1.094,4.79,4.79,0,0,0,1.577-3.908,4.727,4.727,0,0,0-1.335-3.5,5.319,5.319,0,0,0-3.935-1.385Z" transform="translate(-12313.748 -12044.564)" fill="#80868b"/>
      <path id="_2" data-name="2" d="M13548.5,12193.9v6.168h6.461v-6.168h3.738v16.2h-3.738v-6.875h-6.461v6.875h-3.74v-16.2Z" transform="translate(-13505.374 -12044.564)" fill="#80868b"/>
      <path id="_3" data-name="3" d="M14772.48,12179.236v4.3a7.792,7.792,0,0,1-3.57.875,8.694,8.694,0,0,1-6.363-2.356,8.677,8.677,0,0,1,0-12.239,8.335,8.335,0,0,1,6.049-2.332,9.893,9.893,0,0,1,3.885.9v4.323a5.06,5.06,0,0,0-3.789-1.724,4.574,4.574,0,0,0-3.3,1.262,4.984,4.984,0,0,0-1.529,3.74,4.738,4.738,0,0,0,4.906,4.932A5.214,5.214,0,0,0,14772.48,12179.236Zm-4.129,5.926,2.428,1.069-2.721,3.544-1.941-.97Z" transform="translate(-14703.9 -12018.51)" fill="#80868b"/>
      <path id="_4" data-name="4" d="M15830.9,12210.189h-3.74l2.6-16.2h3.109l4.031,9.69,4.031-9.69h3.109l2.6,16.2h-3.736l-1.289-9.666-4.055,9.666h-1.312l-4.055-9.666Z" transform="translate(-15756.347 -12044.654)" fill="#80868b"/>
      <path id="_5" data-name="5" d="M17444.7,12193.9h4.955a5.851,5.851,0,0,1,4.129,1.24,4.035,4.035,0,0,1,1.168,3.059,3.79,3.79,0,0,1-.537,2.064,2.95,2.95,0,0,1-1.359,1.191,3.708,3.708,0,0,1,3.279,3.982,4.44,4.44,0,0,1-1.262,3.277,5.93,5.93,0,0,1-4.275,1.387h-6.1Zm3.693,2.916v3.666h.605a3.232,3.232,0,0,0,1.9-.461,1.839,1.839,0,0,0,.023-2.793,3.332,3.332,0,0,0-1.945-.412Zm0,6.434v3.936h.9a4.2,4.2,0,0,0,2.768-.654,1.746,1.746,0,0,0,.535-1.361,1.688,1.688,0,0,0-.508-1.311,4.125,4.125,0,0,0-2.674-.609Z" transform="translate(-17351.611 -12044.564)" fill="#80868b"/>
    </g>
  </g>
</svg>
