<svg width="1450" height="1086" viewBox="0 0 1450 1086" fill="none" xmlns="http://www.w3.org/2000/svg">
<path d="M1184.32 681.08H250.435C244.06 681.073 237.948 678.364 233.44 673.549C228.932 668.734 226.397 662.206 226.39 655.397V40.3063C226.395 35.3176 228.252 30.5349 231.555 27.0073C234.857 23.4798 239.335 21.4954 244.005 21.4897H1190.44C1195.2 21.4955 1199.75 23.5141 1203.11 27.1026C1206.47 30.6912 1208.36 35.5566 1208.37 40.6316V655.397C1208.36 662.206 1205.82 668.734 1201.31 673.549C1196.81 678.364 1190.7 681.073 1184.32 681.08V681.08Z" fill="#F2F2F2"/>
<path d="M1150.25 644.708H279.896C267.137 644.708 256.758 634.326 256.758 621.564V85.9358C256.758 76.4716 264.449 68.7715 273.904 68.7715H1155.96C1165.57 68.7715 1173.39 76.5985 1173.39 86.2185V621.564C1173.39 634.326 1163.01 644.708 1150.25 644.708Z" fill="white"/>
<path d="M1208.03 38.8371H226.052V25.7612C226.061 18.9292 228.607 12.38 233.132 7.55054C237.656 2.72106 243.789 0.00564439 250.185 0H1183.9C1190.29 0.0056115 1196.43 2.72102 1200.95 7.5505C1205.48 12.38 1208.02 18.9291 1208.03 25.7612V38.8371Z" fill="#CCCCCC"/>
<path d="M269.91 26.1248C273.357 26.1248 276.152 23.1397 276.152 19.4573C276.152 15.775 273.357 12.7898 269.91 12.7898C266.462 12.7898 263.667 15.775 263.667 19.4573C263.667 23.1397 266.462 26.1248 269.91 26.1248Z" fill="white"/>
<path d="M293.603 26.1248C297.051 26.1248 299.846 23.1397 299.846 19.4573C299.846 15.775 297.051 12.7898 293.603 12.7898C290.156 12.7898 287.361 15.775 287.361 19.4573C287.361 23.1397 290.156 26.1248 293.603 26.1248Z" fill="white"/>
<path d="M317.297 26.1248C320.745 26.1248 323.539 23.1397 323.539 19.4573C323.539 15.775 320.745 12.7898 317.297 12.7898C313.85 12.7898 311.055 15.775 311.055 19.4573C311.055 23.1397 313.85 26.1248 317.297 26.1248Z" fill="white"/>
<path d="M1054.45 554.875H379.964C373.203 554.866 366.721 551.994 361.94 546.887C357.159 541.78 354.47 534.856 354.462 527.634V180.276C354.468 174.875 356.479 169.697 360.054 165.877C363.63 162.058 368.478 159.909 373.535 159.903H1060.58C1065.72 159.91 1070.64 162.092 1074.27 165.973C1077.91 169.853 1079.95 175.114 1079.96 180.602V527.634C1079.95 534.856 1077.26 541.78 1072.48 546.887C1067.7 551.994 1061.21 554.866 1054.45 554.875V554.875ZM373.535 163.016C369.251 163.022 365.144 164.842 362.114 168.078C359.085 171.313 357.381 175.7 357.377 180.276V527.634C357.383 534.031 359.765 540.164 364 544.687C368.234 549.21 373.976 551.754 379.964 551.761H1054.45C1060.44 551.754 1066.18 549.21 1070.42 544.687C1074.65 540.164 1077.03 534.031 1077.04 527.634V180.602C1077.04 175.939 1075.3 171.47 1072.21 168.173C1069.13 164.876 1064.94 163.022 1060.58 163.016H373.535Z" fill="#CCCCCC"/>
<path d="M403.281 527.634H1031.14C1037.32 527.634 1043.25 525.01 1047.62 520.34C1052 515.669 1054.45 509.334 1054.45 502.729V212.351C1054.45 205.746 1052 199.411 1047.62 194.741C1043.25 190.07 1037.32 187.446 1031.14 187.446H403.281C397.097 187.446 391.167 190.07 386.794 194.741C382.421 199.411 379.965 205.746 379.965 212.351V502.729C379.965 509.334 382.421 515.669 386.794 520.34C391.167 525.01 397.097 527.634 403.281 527.634Z" fill="#F2F2F2"/>
<path d="M474.57 271.928C481.814 271.928 487.686 265.656 487.686 257.919C487.686 250.182 481.814 243.909 474.57 243.909C467.327 243.909 461.455 250.182 461.455 257.919C461.455 265.656 467.327 271.928 474.57 271.928Z" fill="#CCCCCC"/>
<path d="M474.57 324.852C481.814 324.852 487.686 318.58 487.686 310.843C487.686 303.105 481.814 296.833 474.57 296.833C467.327 296.833 461.455 303.105 461.455 310.843C461.455 318.58 467.327 324.852 474.57 324.852Z" fill="#CCCCCC"/>
<path d="M474.57 377.776C481.814 377.776 487.686 371.504 487.686 363.766C487.686 356.029 481.814 349.757 474.57 349.757C467.327 349.757 461.455 356.029 461.455 363.766C461.455 371.504 467.327 377.776 474.57 377.776Z" fill="#CCCCCC"/>
<path d="M474.57 430.7C481.814 430.7 487.686 424.427 487.686 416.69C487.686 408.953 481.814 402.681 474.57 402.681C467.327 402.681 461.455 408.953 461.455 416.69C461.455 424.427 467.327 430.7 474.57 430.7Z" fill="#CCCCCC"/>
<path d="M971.505 259.475H540.148C539.762 259.475 539.391 259.311 539.118 259.019C538.845 258.727 538.691 258.332 538.691 257.919C538.691 257.506 538.845 257.11 539.118 256.818C539.391 256.526 539.762 256.362 540.148 256.362H971.505C971.892 256.362 972.262 256.526 972.536 256.818C972.809 257.11 972.962 257.506 972.962 257.919C972.962 258.332 972.809 258.727 972.536 259.019C972.262 259.311 971.892 259.475 971.505 259.475Z" fill="#CCCCCC"/>
<path d="M971.505 312.399H540.148C539.762 312.399 539.391 312.235 539.118 311.943C538.845 311.651 538.691 311.255 538.691 310.843C538.691 310.43 538.845 310.034 539.118 309.742C539.391 309.45 539.762 309.286 540.148 309.286H971.505C971.892 309.286 972.262 309.45 972.536 309.742C972.809 310.034 972.962 310.43 972.962 310.843C972.962 311.255 972.809 311.651 972.536 311.943C972.262 312.235 971.892 312.399 971.505 312.399Z" fill="#CCCCCC"/>
<path d="M971.505 365.323H540.148C539.762 365.323 539.391 365.159 539.118 364.867C538.845 364.575 538.691 364.179 538.691 363.766C538.691 363.354 538.845 362.958 539.118 362.666C539.391 362.374 539.762 362.21 540.148 362.21H971.505C971.892 362.21 972.262 362.374 972.536 362.666C972.809 362.958 972.962 363.354 972.962 363.766C972.962 364.179 972.809 364.575 972.536 364.867C972.262 365.159 971.892 365.323 971.505 365.323Z" fill="#CCCCCC"/>
<path d="M971.505 418.247H540.148C539.762 418.247 539.391 418.083 539.118 417.791C538.845 417.499 538.691 417.103 538.691 416.69C538.691 416.278 538.845 415.882 539.118 415.59C539.391 415.298 539.762 415.134 540.148 415.134H971.505C971.892 415.134 972.262 415.298 972.536 415.59C972.809 415.882 972.962 416.278 972.962 416.69C972.962 417.103 972.809 417.499 972.536 417.791C972.262 418.083 971.892 418.247 971.505 418.247Z" fill="#CCCCCC"/>
<path d="M621.757 471.171H579.495C577.563 471.168 575.711 470.348 574.345 468.889C572.979 467.43 572.211 465.451 572.209 463.388V421.36C572.211 419.297 572.979 417.318 574.345 415.859C575.711 414.4 577.563 413.58 579.495 413.577H621.757C623.688 413.58 625.54 414.4 626.906 415.859C628.272 417.318 629.041 419.297 629.043 421.36V463.388C629.041 465.451 628.272 467.43 626.906 468.889C625.54 470.348 623.688 471.168 621.757 471.171V471.171Z" fill="#0A146E"/>
<path d="M716.48 471.171H674.219C672.287 471.169 670.435 470.348 669.069 468.889C667.703 467.43 666.935 465.451 666.932 463.388V368.436C666.935 366.373 667.703 364.395 669.069 362.936C670.435 361.476 672.287 360.656 674.219 360.653H716.48C718.412 360.656 720.264 361.476 721.63 362.936C722.996 364.395 723.764 366.373 723.767 368.436V463.388C723.764 465.451 722.996 467.43 721.63 468.889C720.264 470.348 718.412 471.169 716.48 471.171V471.171Z" fill="#0A146E"/>
<path d="M812.661 471.171H770.4C768.468 471.169 766.616 470.348 765.25 468.889C763.884 467.43 763.115 465.451 763.113 463.388V315.512C763.115 313.449 763.884 311.471 765.25 310.012C766.616 308.553 768.468 307.732 770.4 307.729H812.661C814.593 307.732 816.445 308.553 817.811 310.012C819.177 311.471 819.945 313.449 819.947 315.512V463.388C819.945 465.451 819.177 467.43 817.811 468.889C816.445 470.348 814.593 471.169 812.661 471.171V471.171Z" fill="#0A146E"/>
<path d="M911.756 471.171H869.495C867.563 471.169 865.711 470.348 864.345 468.889C862.979 467.43 862.211 465.451 862.209 463.388V264.145C862.211 262.082 862.979 260.103 864.345 258.644C865.711 257.185 867.563 256.364 869.495 256.362H911.756C913.688 256.364 915.54 257.185 916.906 258.644C918.272 260.103 919.041 262.082 919.043 264.145V463.388C919.041 465.451 918.272 467.43 916.906 468.889C915.54 470.348 913.688 471.169 911.756 471.171V471.171Z" fill="#0A146E"/>
<path d="M971.505 471.171H540.148C539.762 471.171 539.391 471.007 539.118 470.715C538.845 470.423 538.691 470.027 538.691 469.614C538.691 469.201 538.845 468.806 539.118 468.514C539.391 468.222 539.762 468.058 540.148 468.058H971.505C971.892 468.058 972.262 468.222 972.536 468.514C972.809 468.806 972.962 469.201 972.962 469.614C972.962 470.027 972.809 470.423 972.536 470.715C972.262 471.007 971.892 471.171 971.505 471.171Z" fill="#3F3D56"/>
<path d="M1161.02 761.548C1162.2 759.639 1163.76 758.029 1165.59 756.833C1167.41 755.637 1169.46 754.883 1171.59 754.624C1173.72 754.365 1175.88 754.608 1177.91 755.336C1179.94 756.063 1181.8 757.257 1183.35 758.834L1229.62 733.324L1226.75 762.066L1183.24 781.884C1180.59 784.494 1177.13 785.974 1173.53 786.043C1169.92 786.112 1166.42 784.765 1163.68 782.259C1160.94 779.752 1159.15 776.259 1158.66 772.442C1158.18 768.625 1159.01 764.749 1161.02 761.548Z" fill="#FFB8B8"/>
<path d="M1200.84 772.267C1199.79 771.387 1199.01 770.187 1198.62 768.825L1194.94 756.124C1194.54 754.748 1194.55 753.275 1194.97 751.905C1195.38 750.535 1196.18 749.334 1197.25 748.464L1234.76 718.203L1275.38 637.709C1277.08 635.368 1279.2 633.408 1281.61 631.941C1284.02 630.474 1286.68 629.528 1289.43 629.158C1292.18 628.788 1294.98 629.001 1297.65 629.784C1300.33 630.568 1302.83 631.907 1305.02 633.724C1307.21 635.541 1309.05 637.802 1310.42 640.377C1311.8 642.952 1312.68 645.79 1313.03 648.731C1313.37 651.671 1313.17 654.655 1312.44 657.513C1311.71 660.371 1310.45 663.047 1308.75 665.387L1285.64 717.487C1278.63 733.3 1266.48 745.855 1251.45 752.816L1207.49 773.18C1206.65 773.571 1205.73 773.768 1204.81 773.757C1203.89 773.747 1202.98 773.529 1202.15 773.119C1201.68 772.891 1201.24 772.605 1200.84 772.267V772.267Z" fill="#3F3D56"/>
<path d="M1309.77 604.114C1329.54 604.114 1345.57 586.997 1345.57 565.883C1345.57 544.768 1329.54 527.652 1309.77 527.652C1290.01 527.652 1273.98 544.768 1273.98 565.883C1273.98 586.997 1290.01 604.114 1309.77 604.114Z" fill="#FFB8B8"/>
<path d="M1295.25 1067.41L1277.39 1067.41L1268.89 993.799L1295.26 993.8L1295.25 1067.41Z" fill="#FFB8B8"/>
<path d="M1264.63 1061.95H1299.08V1085.13H1242.93C1242.93 1082.08 1243.49 1079.07 1244.58 1076.26C1245.67 1073.45 1247.27 1070.89 1249.29 1068.74C1251.3 1066.59 1253.69 1064.88 1256.32 1063.72C1258.96 1062.55 1261.78 1061.95 1264.63 1061.95Z" fill="#2F2E41"/>
<path d="M1353.55 1067.41L1335.68 1067.41L1327.18 993.8L1353.55 993.803L1353.55 1067.41Z" fill="#FFB8B8"/>
<path d="M1322.92 1061.96H1357.37V1085.13H1301.22C1301.22 1082.09 1301.78 1079.07 1302.87 1076.26C1303.96 1073.45 1305.56 1070.9 1307.58 1068.74C1309.59 1066.59 1311.98 1064.88 1314.62 1063.72C1317.25 1062.56 1320.07 1061.96 1322.92 1061.96V1061.96Z" fill="#2F2E41"/>
<path d="M1354.85 1048.73L1333.91 1048.73C1332.47 1048.73 1331.07 1048.22 1329.93 1047.28C1328.78 1046.35 1327.96 1045.04 1327.58 1043.55L1297.45 924.158C1297.4 923.972 1297.29 923.811 1297.14 923.707C1296.99 923.602 1296.8 923.561 1296.63 923.593C1296.45 923.624 1296.29 923.724 1296.17 923.874C1296.06 924.025 1296 924.215 1296.02 924.407L1302.1 1037.64C1302.16 1038.64 1302.01 1039.64 1301.67 1040.57C1301.33 1041.51 1300.81 1042.36 1300.13 1043.05C1299.46 1043.75 1298.66 1044.29 1297.77 1044.63C1296.89 1044.97 1295.95 1045.1 1295.01 1045.02L1271.48 1042.92C1269.97 1042.78 1268.55 1042.1 1267.47 1040.97C1266.38 1039.85 1265.69 1038.36 1265.51 1036.75L1244.07 798.991L1252.37 804.308L1330.08 790.214L1361.35 1040.8C1361.47 1041.79 1361.4 1042.8 1361.13 1043.75C1360.86 1044.71 1360.4 1045.59 1359.78 1046.34C1359.17 1047.09 1358.41 1047.69 1357.56 1048.11C1356.71 1048.52 1355.79 1048.73 1354.85 1048.73H1354.85Z" fill="#2F2E41"/>
<path d="M1270.06 824.086C1261.49 824.013 1253.09 821.488 1245.74 816.774C1244.61 816.057 1243.7 814.991 1243.15 813.717C1242.59 812.442 1242.41 811.018 1242.63 809.63C1245.36 791.751 1259.65 700.035 1272.66 650.035C1277.96 629.67 1289.67 618.702 1307.47 617.435C1333.51 615.611 1356.65 637.37 1359.06 666C1363.31 716.509 1346.04 788.27 1338.42 816.78C1338.13 817.881 1337.58 818.887 1336.84 819.712C1336.09 820.536 1335.17 821.152 1334.15 821.506C1333.13 821.861 1332.04 821.943 1330.99 821.744C1329.93 821.546 1328.94 821.074 1328.09 820.37L1312.56 807.46C1311.6 806.68 1310.42 806.282 1309.22 806.335C1308.01 806.389 1306.87 806.89 1305.97 807.753C1292.88 820.23 1280.44 824.087 1270.06 824.086Z" fill="#3F3D56"/>
<path opacity="0.2" d="M1321.45 690.716L1334.56 749.868L1315.61 799.677L1328.73 751.424L1321.45 690.716Z" fill="black"/>
<path d="M1330.2 597.322C1333.38 597.385 1336.54 596.774 1339.51 595.523C1340.81 594.987 1342.16 594.546 1343.46 594.01C1354.95 589.27 1362.51 576.205 1362.79 563.056C1363.06 549.906 1356.68 537.144 1347.22 528.732C1337.75 520.321 1325.49 516.002 1313.21 515.003C1299.99 513.927 1285.09 517.509 1277.7 529.273C1275.74 532.404 1274.36 536.203 1275.53 539.985C1275.88 541.126 1276.5 542.149 1277.33 542.951C1280.63 546.088 1283.92 543.73 1287.29 543.522C1291.91 543.235 1296.07 547.234 1297.56 551.918C1299.05 556.601 1298.39 561.758 1297.19 566.535C1296.27 569.41 1295.69 572.395 1295.47 575.423C1295.37 576.941 1295.64 578.461 1296.24 579.838C1296.85 581.215 1297.77 582.404 1298.93 583.291C1301.82 585.157 1305.62 584.078 1308.51 582.215C1311.4 580.352 1313.9 577.763 1317.02 576.392C1320.14 575.022 1324.34 575.326 1326.16 578.365C1326.74 579.471 1327.13 580.677 1327.31 581.928C1328.94 589.858 1328.57 589.391 1330.2 597.322V597.322Z" fill="#2F2E41"/>
<path d="M1274.72 1014.01L1050.59 930.637C1046.75 929.201 1043.59 926.195 1041.82 922.277C1040.05 918.359 1039.8 913.85 1041.14 909.739L1099.38 731.107C1100.36 728.098 1102.43 725.629 1105.11 724.241C1107.8 722.854 1110.89 722.661 1113.71 723.706L1345.41 809.897C1348.28 810.967 1350.63 813.207 1351.95 816.127C1353.27 819.047 1353.46 822.408 1352.46 825.472L1294.28 1003.91C1292.94 1008.01 1290.13 1011.39 1286.46 1013.28C1282.79 1015.17 1278.57 1015.44 1274.72 1014.01V1014.01Z" fill="#E6E6E6"/>
<path d="M1069.72 920.371L1265.7 993.274C1269.43 994.663 1273.53 994.411 1277.09 992.573C1280.64 990.736 1283.37 987.465 1284.67 983.478L1331.7 839.235C1333 835.248 1332.77 830.874 1331.05 827.074C1329.33 823.273 1326.26 820.358 1322.53 818.97L1126.55 746.067C1122.82 744.679 1118.72 744.931 1115.17 746.768C1111.61 748.605 1108.88 751.877 1107.58 755.863L1060.55 900.106C1059.91 902.08 1059.63 904.17 1059.74 906.257C1059.86 908.343 1060.35 910.386 1061.21 912.268C1062.06 914.15 1063.25 915.834 1064.71 917.224C1066.17 918.615 1067.87 919.684 1069.72 920.371Z" fill="white"/>
<path d="M1118.93 819.027L1109.23 815.417C1108.7 815.22 1108.27 814.809 1108.03 814.273C1107.78 813.737 1107.75 813.12 1107.93 812.558L1111.31 802.191C1111.5 801.629 1111.88 801.167 1112.38 800.908C1112.89 800.649 1113.46 800.613 1113.99 800.808L1123.7 804.419C1124.22 804.615 1124.65 805.027 1124.9 805.563C1125.14 806.099 1125.17 806.716 1124.99 807.278L1121.61 817.645C1121.43 818.207 1121.04 818.668 1120.54 818.928C1120.04 819.187 1119.46 819.223 1118.93 819.027V819.027Z" fill="#0A146E"/>
<path d="M1110.18 845.888L1100.47 842.278C1099.94 842.081 1099.51 841.67 1099.27 841.134C1099.03 840.598 1098.99 839.981 1099.18 839.419L1102.56 829.051C1102.74 828.489 1103.13 828.028 1103.63 827.769C1104.13 827.51 1104.71 827.474 1105.23 827.669L1114.94 831.28C1115.47 831.476 1115.9 831.887 1116.14 832.423C1116.38 832.959 1116.42 833.576 1116.23 834.139L1112.85 844.506C1112.67 845.068 1112.28 845.529 1111.78 845.788C1111.28 846.047 1110.7 846.083 1110.18 845.888V845.888Z" fill="#3F3D56"/>
<path d="M1101.42 872.749L1091.71 869.138C1091.19 868.942 1090.75 868.531 1090.51 867.995C1090.27 867.459 1090.24 866.842 1090.42 866.279L1093.8 855.912C1093.98 855.35 1094.37 854.889 1094.87 854.63C1095.37 854.371 1095.95 854.335 1096.48 854.53L1106.18 858.14C1106.71 858.337 1107.14 858.748 1107.38 859.284C1107.62 859.82 1107.66 860.437 1107.47 860.999L1104.09 871.367C1103.91 871.929 1103.53 872.39 1103.02 872.649C1102.52 872.908 1101.94 872.944 1101.42 872.749V872.749Z" fill="#CCCCCC"/>
<path d="M1184.15 837.476L1137.39 820.08C1137.13 819.984 1136.89 819.833 1136.68 819.637C1136.47 819.441 1136.3 819.203 1136.18 818.937C1136.06 818.672 1135.99 818.383 1135.98 818.088C1135.96 817.793 1136 817.498 1136.09 817.219C1136.18 816.94 1136.32 816.683 1136.51 816.463C1136.69 816.242 1136.91 816.063 1137.16 815.935C1137.41 815.806 1137.68 815.732 1137.96 815.716C1138.23 815.699 1138.51 815.741 1138.77 815.839L1185.54 833.235C1185.8 833.331 1186.04 833.482 1186.25 833.678C1186.45 833.874 1186.62 834.112 1186.74 834.378C1186.86 834.643 1186.93 834.932 1186.95 835.227C1186.96 835.522 1186.93 835.817 1186.84 836.096C1186.74 836.375 1186.6 836.632 1186.42 836.852C1186.23 837.073 1186.01 837.252 1185.76 837.381C1185.51 837.509 1185.24 837.583 1184.97 837.599C1184.69 837.616 1184.41 837.574 1184.15 837.476V837.476Z" fill="#CCCCCC"/>
<path d="M1175.4 864.337L1128.63 846.941C1128.1 846.745 1127.67 846.334 1127.43 845.797C1127.19 845.261 1127.15 844.644 1127.34 844.082C1127.52 843.519 1127.91 843.058 1128.41 842.799C1128.91 842.539 1129.49 842.504 1130.01 842.7L1176.78 860.096C1177.04 860.192 1177.28 860.343 1177.49 860.539C1177.69 860.735 1177.86 860.973 1177.98 861.238C1178.1 861.504 1178.17 861.793 1178.19 862.087C1178.21 862.382 1178.17 862.677 1178.08 862.956C1177.99 863.235 1177.84 863.492 1177.66 863.713C1177.48 863.933 1177.25 864.112 1177 864.241C1176.76 864.369 1176.48 864.443 1176.21 864.46C1175.93 864.476 1175.66 864.435 1175.4 864.337V864.337Z" fill="#CCCCCC"/>
<path d="M1166.64 891.198L1119.87 873.802C1119.35 873.606 1118.91 873.194 1118.67 872.658C1118.43 872.122 1118.4 871.505 1118.58 870.942C1118.76 870.38 1119.15 869.918 1119.65 869.659C1120.15 869.4 1120.73 869.364 1121.26 869.56L1168.02 886.956C1168.55 887.152 1168.98 887.564 1169.22 888.1C1169.46 888.636 1169.5 889.253 1169.31 889.815C1169.13 890.378 1168.75 890.84 1168.24 891.099C1167.74 891.358 1167.16 891.393 1166.64 891.198V891.198Z" fill="#CCCCCC"/>
<path d="M1291.09 905.751C1291.43 904.878 1291.75 903.991 1292.04 903.086C1295.89 891.297 1295.19 878.36 1290.1 867.12C1285.02 855.881 1275.96 847.261 1264.92 843.155L1249.55 890.299L1291.09 905.751Z" fill="#0A146E"/>
<path d="M1245.08 893.168L1260.45 846.023C1252.33 843.001 1243.56 842.584 1235.21 844.825C1226.87 847.065 1219.33 851.864 1213.51 858.63C1207.69 865.397 1203.85 873.834 1202.47 882.903C1201.08 891.971 1202.21 901.273 1205.72 909.663C1209.23 918.053 1214.96 925.163 1222.2 930.116C1229.45 935.069 1237.89 937.65 1246.49 937.539C1255.09 937.428 1263.47 934.63 1270.61 929.491C1277.74 924.352 1283.3 917.097 1286.62 908.619L1245.08 893.168Z" fill="#3F3D56"/>
<path d="M1300.11 825.539C1299.94 823.259 1300.23 820.965 1300.98 818.82C1301.72 816.675 1302.9 814.73 1304.43 813.123C1305.95 811.517 1307.79 810.287 1309.81 809.52C1311.83 808.754 1313.98 808.469 1316.11 808.687L1337.79 758.11L1352.13 782.623L1329.34 826.894C1328.77 830.696 1326.9 834.139 1324.1 836.571C1321.3 839.002 1317.77 840.253 1314.16 840.086C1310.56 839.919 1307.14 838.346 1304.55 835.665C1301.96 832.984 1300.38 829.381 1300.11 825.539V825.539Z" fill="#FFB8B8"/>
<path d="M1337.63 807.727C1336.3 807.728 1335 807.293 1333.9 806.482L1323.66 798.915C1322.56 798.092 1321.72 796.927 1321.25 795.577C1320.78 794.226 1320.72 792.755 1321.06 791.363L1333.09 742.828L1318.55 652.712C1318.53 649.747 1319.06 646.807 1320.11 644.061C1321.16 641.315 1322.7 638.816 1324.65 636.707C1326.61 634.599 1328.93 632.923 1331.49 631.774C1334.05 630.625 1336.79 630.026 1339.57 630.012C1342.35 629.997 1345.1 630.568 1347.67 631.69C1350.24 632.812 1352.57 634.465 1354.55 636.553C1356.52 638.641 1358.08 641.124 1359.16 643.859C1360.23 646.594 1360.79 649.529 1360.8 652.494L1372.71 708.723C1376.33 725.789 1374.02 743.677 1366.22 759.061L1343.4 804.06C1342.96 804.925 1342.35 805.681 1341.62 806.28C1340.89 806.879 1340.05 807.307 1339.16 807.536C1338.66 807.664 1338.15 807.728 1337.63 807.727V807.727Z" fill="#3F3D56"/>
<path d="M1448.54 1086H1171.66C1171.27 1086 1170.9 1085.84 1170.63 1085.54C1170.35 1085.25 1170.2 1084.86 1170.2 1084.44C1170.2 1084.03 1170.35 1083.63 1170.63 1083.34C1170.9 1083.05 1171.27 1082.89 1171.66 1082.89H1448.54C1448.93 1082.89 1449.3 1083.05 1449.57 1083.34C1449.85 1083.63 1450 1084.03 1450 1084.44C1450 1084.86 1449.85 1085.25 1449.57 1085.54C1449.3 1085.84 1448.93 1086 1448.54 1086Z" fill="#CCCCCC"/>
<path d="M714.859 1066.63L732.725 1066.63L741.224 993.025H714.856L714.859 1066.63Z" fill="#A0616A"/>
<path d="M710.302 1060.4L745.486 1060.4H745.488C748.432 1060.4 751.348 1061.02 754.068 1062.22C756.789 1063.43 759.261 1065.19 761.343 1067.42C763.425 1069.64 765.077 1072.28 766.203 1075.19C767.33 1078.09 767.91 1081.21 767.91 1084.35V1085.13L710.303 1085.13L710.302 1060.4Z" fill="#2F2E41"/>
<path d="M643.452 1066.63L661.318 1066.63L669.817 993.025H643.449L643.452 1066.63Z" fill="#A0616A"/>
<path d="M638.895 1060.4L674.079 1060.4H674.081C677.025 1060.4 679.941 1061.02 682.661 1062.22C685.382 1063.43 687.854 1065.19 689.936 1067.42C692.018 1069.64 693.67 1072.28 694.796 1075.19C695.923 1078.09 696.503 1081.21 696.503 1084.35V1085.13L638.896 1085.13L638.895 1060.4Z" fill="#2F2E41"/>
<path d="M718.425 557.036C738.193 557.036 754.217 539.92 754.217 518.805C754.217 497.691 738.193 480.574 718.425 480.574C698.657 480.574 682.633 497.691 682.633 518.805C682.633 539.92 698.657 557.036 718.425 557.036Z" fill="#A0616A"/>
<path d="M742.494 1050.75H709.34C708.472 1050.75 707.613 1050.56 706.812 1050.2C706.011 1049.85 705.285 1049.32 704.675 1048.66C704.065 1048 703.584 1047.22 703.259 1046.36C702.934 1045.5 702.772 1044.58 702.783 1043.66L704.709 875.497C704.716 874.899 704.509 874.322 704.129 873.883C703.75 873.444 703.228 873.177 702.67 873.138C702.112 873.098 701.56 873.288 701.13 873.669C700.699 874.049 700.421 874.592 700.353 875.185L681.058 1044.59C680.863 1046.29 680.094 1047.85 678.895 1048.98C677.696 1050.12 676.15 1050.74 674.548 1050.75H641.075C640.171 1050.75 639.277 1050.55 638.448 1050.16C637.62 1049.77 636.875 1049.21 636.261 1048.5C635.647 1047.79 635.177 1046.95 634.88 1046.04C634.584 1045.13 634.467 1044.16 634.538 1043.2L656.641 741.101L657.242 741.031L763.083 728.822L749.045 1044.07C748.967 1045.87 748.242 1047.57 747.022 1048.81C745.802 1050.06 744.18 1050.75 742.494 1050.75V1050.75Z" fill="#2F2E41"/>
<path d="M657.929 759.647C656.229 759.642 654.596 758.932 653.377 757.666C652.158 756.401 651.447 754.678 651.395 752.862C650.817 733.761 649.827 667.667 661.336 619.143C664.478 605.888 671.528 594.064 681.446 585.419C691.365 576.775 703.624 571.768 716.411 571.14V571.14C728.998 570.406 741.481 573.924 752.091 581.195C762.7 588.466 770.896 599.121 775.517 611.648C794.863 664.11 813.141 728.775 790.353 738.917C760.486 752.209 681.751 758.134 658.332 759.633C658.197 759.642 658.063 759.647 657.929 759.647Z" fill="#3F3D56"/>
<path d="M794.727 480.164C795.289 480.782 795.896 481.351 796.542 481.866L792.785 558.958L777.157 567.504L786.149 594.383L815.193 582.125C817.539 581.135 819.521 579.358 820.842 577.062C822.162 574.766 822.75 572.074 822.517 569.391L814.908 481.943C817.398 479.959 819.263 477.212 820.256 474.068C821.248 470.924 821.321 467.531 820.465 464.342C819.608 461.152 817.863 458.317 815.461 456.213C813.059 454.109 810.114 452.836 807.018 452.563C803.922 452.29 800.822 453.03 798.13 454.685C795.437 456.341 793.281 458.832 791.946 461.828C790.612 464.825 790.163 468.184 790.66 471.459C791.157 474.735 792.575 477.771 794.727 480.164V480.164Z" fill="#A0616A"/>
<path d="M793.082 561.827L804.076 595.199C804.388 596.148 804.506 597.159 804.42 598.161C804.335 599.164 804.048 600.134 803.579 601.008C803.11 601.881 802.471 602.636 801.704 603.222C800.938 603.807 800.062 604.209 799.137 604.401L766.719 611.106C762.162 612.789 757.166 612.472 752.826 610.226C748.487 607.98 745.159 603.987 743.572 599.124C741.985 594.26 742.268 588.923 744.359 584.282C746.451 579.642 750.18 576.076 754.729 574.368L783.836 557.957C784.67 557.487 785.588 557.215 786.529 557.159C787.47 557.103 788.411 557.264 789.289 557.631C790.166 557.998 790.959 558.563 791.614 559.287C792.268 560.012 792.769 560.878 793.082 561.827V561.827Z" fill="#3F3D56"/>
<path d="M639.691 480.164C639.128 480.782 638.521 481.351 637.875 481.866L641.632 558.958L657.26 567.504L648.268 594.383L619.225 582.125C616.878 581.135 614.896 579.358 613.576 577.062C612.255 574.766 611.667 572.074 611.901 569.391L619.509 481.943C617.02 479.959 615.154 477.212 614.162 474.068C613.169 470.924 613.096 467.531 613.953 464.342C614.809 461.152 616.555 458.317 618.957 456.213C621.359 454.109 624.303 452.836 627.399 452.563C630.495 452.29 633.595 453.03 636.288 454.685C638.98 456.341 641.137 458.832 642.471 461.828C643.806 464.825 644.254 468.184 643.758 471.459C643.261 474.735 641.842 477.771 639.691 480.164H639.691Z" fill="#A0616A"/>
<path d="M645.129 557.631C646.006 557.263 646.948 557.102 647.888 557.158C648.829 557.214 649.748 557.487 650.581 557.957L679.688 574.368C684.237 576.076 687.966 579.642 690.058 584.282C692.149 588.923 692.432 594.26 690.845 599.124C689.258 603.987 685.93 607.979 681.591 610.226C677.252 612.472 672.256 612.789 667.698 611.106L635.281 604.401C634.355 604.209 633.48 603.807 632.713 603.221C631.947 602.636 631.307 601.881 630.838 601.008C630.37 600.134 630.083 599.163 629.997 598.161C629.911 597.159 630.029 596.148 630.342 595.199L641.336 561.827C641.648 560.878 642.149 560.011 642.803 559.287C643.458 558.562 644.251 557.998 645.129 557.631V557.631Z" fill="#3F3D56"/>
<path d="M732.326 525.322C732.138 520.445 733.284 515.615 735.624 511.423C737.963 507.23 741.396 503.856 745.501 501.712C756.381 495.713 763.216 482.916 760.221 471.231C756.387 456.274 737.329 446.574 721.887 451.72C717.707 453.304 713.677 455.305 709.848 457.696L699.759 463.472C695.45 465.777 691.294 468.397 687.323 471.314C681.374 475.996 676.712 482.299 673.823 489.563C670.934 496.827 669.924 504.787 670.899 512.61C672.886 527.816 682.208 541.761 694.97 551.309C699.85 555.205 705.487 557.881 711.465 559.14C717.582 560.217 724.391 558.993 728.864 554.93C735.853 548.58 735.131 537.946 732.871 529.065C732.572 527.84 732.389 526.586 732.326 525.322Z" fill="#2F2E41"/>
<path d="M853.97 1086H577.085C576.699 1086 576.328 1085.84 576.055 1085.54C575.782 1085.25 575.628 1084.86 575.628 1084.44C575.628 1084.03 575.782 1083.63 576.055 1083.34C576.328 1083.05 576.699 1082.89 577.085 1082.89H853.97C854.356 1082.89 854.727 1083.05 855 1083.34C855.274 1083.63 855.427 1084.03 855.427 1084.44C855.427 1084.86 855.274 1085.25 855 1085.54C854.727 1085.84 854.356 1086 853.97 1086Z" fill="#CCCCCC"/>
<path d="M402.079 802.036L173.61 902.151C169.686 903.865 165.287 903.847 161.376 902.1C157.465 900.353 154.362 897.02 152.749 892.833L82.8109 710.739C81.6354 707.668 81.6481 704.225 82.8462 701.165C84.0444 698.104 86.3301 695.677 89.202 694.414L325.395 590.914C328.319 589.637 331.598 589.651 334.513 590.953C337.428 592.255 339.74 594.739 340.942 597.859L410.803 779.753C412.408 783.944 412.391 788.644 410.755 792.821C409.12 796.999 406 800.313 402.079 802.036V802.036Z" fill="#E6E6E6"/>
<path d="M181.886 880.065L381.666 792.521C385.471 790.854 388.499 787.641 390.086 783.589C391.672 779.537 391.687 774.977 390.126 770.914L333.652 623.874C332.879 621.862 331.743 620.032 330.308 618.489C328.873 616.946 327.168 615.72 325.289 614.881C323.411 614.042 321.396 613.606 319.36 613.599C317.324 613.591 315.306 614.012 313.423 614.838L113.642 702.382C111.758 703.207 110.045 704.421 108.601 705.954C107.156 707.486 106.008 709.308 105.223 711.314C104.437 713.32 104.029 715.473 104.022 717.647C104.016 719.822 104.41 721.977 105.183 723.989L161.657 871.029C162.43 873.041 163.566 874.871 165.001 876.414C166.436 877.957 168.141 879.183 170.019 880.022C171.898 880.861 173.913 881.297 175.949 881.304C177.985 881.312 180.002 880.89 181.886 880.065V880.065Z" fill="white"/>
<path d="M332.548 663.974L329.611 665.261L329.811 665.784L332.749 664.497L332.548 663.974Z" fill="#E6E6E6"/>
<path d="M323.878 668.384L317.944 670.984L317.743 670.461L323.677 667.861L323.878 668.384ZM312.01 673.584L306.077 676.184L305.876 675.662L311.809 673.061L312.01 673.584ZM300.143 678.785L294.209 681.385L294.008 680.862L299.942 678.262L300.143 678.785ZM288.275 683.985L282.342 686.585L282.141 686.062L288.075 683.462L288.275 683.985ZM276.408 689.185L270.474 691.785L270.274 691.262L276.207 688.662L276.408 689.185ZM264.541 694.386L258.607 696.986L258.406 696.463L264.34 693.863L264.541 694.386ZM252.673 699.586L246.74 702.186L246.539 701.663L252.472 699.063L252.673 699.586ZM240.806 704.786L234.872 707.386L234.671 706.863L240.605 704.263L240.806 704.786ZM228.938 709.987L223.005 712.587L222.804 712.064L228.738 709.464L228.938 709.987ZM217.071 715.187L211.137 717.787L210.936 717.264L216.87 714.664L217.071 715.187ZM205.203 720.387L199.27 722.987L199.069 722.464L205.003 719.864L205.203 720.387ZM193.336 725.588L187.402 728.188L187.202 727.665L193.135 725.065L193.336 725.588ZM181.469 730.788L175.535 733.388L175.334 732.865L181.268 730.265L181.469 730.788ZM169.601 735.988L163.667 738.588L163.467 738.065L169.4 735.465L169.601 735.988ZM157.734 741.189L151.8 743.789L151.599 743.266L157.533 740.666L157.734 741.189ZM145.866 746.389L139.933 748.989L139.732 748.466L145.665 745.866L145.866 746.389Z" fill="#E6E6E6"/>
<path d="M133.798 751.066L130.861 752.353L131.062 752.876L133.999 751.589L133.798 751.066Z" fill="#E6E6E6"/>
<path d="M254.787 754.862L251.85 756.149L252.051 756.672L254.988 755.384L254.787 754.862Z" fill="#E6E6E6"/>
<path d="M246.205 759.233L240.359 761.795L240.159 761.272L246.004 758.71L246.205 759.233ZM234.514 764.356L228.668 766.918L228.468 766.395L234.313 763.833L234.514 764.356ZM222.823 769.479L216.977 772.041L216.776 771.518L222.622 768.956L222.823 769.479ZM211.132 774.602L205.286 777.164L205.085 776.641L210.931 774.079L211.132 774.602ZM199.441 779.726L193.595 782.287L193.394 781.764L199.24 779.203L199.441 779.726ZM187.749 784.849L181.904 787.41L181.703 786.887L187.548 784.326L187.749 784.849ZM176.058 789.972L170.213 792.533L170.012 792.01L175.857 789.449L176.058 789.972ZM164.367 795.095L158.521 797.656L158.321 797.133L164.166 794.572L164.367 795.095Z" fill="#E6E6E6"/>
<path d="M152.475 799.695L149.538 800.982L149.739 801.505L152.676 800.218L152.475 799.695Z" fill="#E6E6E6"/>
<path d="M206.348 802.967L203.411 804.254L203.612 804.777L206.549 803.49L206.348 802.967Z" fill="#E6E6E6"/>
<path d="M197.598 807.412L191.584 810.047L191.383 809.525L197.397 806.889L197.598 807.412ZM185.569 812.683L179.555 815.318L179.354 814.796L185.369 812.16L185.569 812.683ZM173.541 817.954L167.527 820.589L167.326 820.066L173.34 817.431L173.541 817.954Z" fill="#E6E6E6"/>
<path d="M161.312 822.702L158.374 823.989L158.575 824.512L161.512 823.225L161.312 822.702Z" fill="#E6E6E6"/>
<path d="M221.428 842.229L218.491 843.516L218.692 844.039L221.629 842.752L221.428 842.229Z" fill="#E6E6E6"/>
<path d="M212.678 846.674L206.663 849.31L206.463 848.787L212.477 846.151L212.678 846.674ZM200.649 851.945L194.635 854.581L194.434 854.058L200.448 851.422L200.649 851.945ZM188.621 857.216L182.606 859.851L182.406 859.329L188.42 856.693L188.621 857.216Z" fill="#E6E6E6"/>
<path d="M176.391 861.964L173.454 863.251L173.655 863.774L176.592 862.487L176.391 861.964Z" fill="#E6E6E6"/>
<path d="M190.369 856.919L359.669 782.731C363.767 780.93 367.028 777.466 368.737 773.1C370.447 768.733 370.465 763.821 368.788 759.441L334.581 670.379L334.251 670.536L292.704 776.644L261.891 762.884C261.322 762.628 260.706 762.516 260.09 762.557C259.474 762.598 258.876 762.791 258.341 763.12C257.539 763.636 256.918 764.42 256.575 765.351L234.801 820.955L212.272 810.895C211.786 810.678 211.264 810.565 210.737 810.563C210.21 810.561 209.688 810.67 209.201 810.884C208.713 811.097 208.27 811.412 207.896 811.808C207.522 812.205 207.225 812.677 207.022 813.196C206.878 813.574 192.986 849.979 190.369 856.919Z" fill="#0A146E"/>
<path d="M189.848 857.757L189.36 857.539L206.781 813.042C207.242 811.868 208.121 810.936 209.224 810.453C210.327 809.97 211.565 809.973 212.665 810.464L234.75 820.328L256.399 765.031C256.861 763.856 257.739 762.925 258.842 762.442C259.946 761.958 261.183 761.962 262.284 762.452L292.653 776.018L334.412 669.355L334.901 669.573L292.937 776.757L262.08 762.974C261.599 762.759 261.083 762.647 260.562 762.646C260.041 762.644 259.525 762.751 259.042 762.963C258.56 763.174 258.122 763.485 257.752 763.877C257.382 764.269 257.089 764.735 256.888 765.249L235.034 821.068L212.461 810.985C211.49 810.553 210.398 810.549 209.425 810.976C208.451 811.402 207.676 812.224 207.269 813.26L189.848 857.757Z" fill="#3F3D56"/>
<path d="M206.449 807.184C208.494 807.184 210.153 805.413 210.153 803.228C210.153 801.043 208.494 799.272 206.449 799.272C204.403 799.272 202.745 801.043 202.745 803.228C202.745 805.413 204.403 807.184 206.449 807.184Z" fill="#3F3D56"/>
<path d="M254.888 759.079C256.933 759.079 258.591 757.308 258.591 755.123C258.591 752.938 256.933 751.167 254.888 751.167C252.842 751.167 251.184 752.938 251.184 755.123C251.184 757.308 252.842 759.079 254.888 759.079Z" fill="#3F3D56"/>
<path d="M330.312 668.052C332.357 668.052 334.016 666.28 334.016 664.095C334.016 661.91 332.357 660.139 330.312 660.139C328.266 660.139 326.608 661.91 326.608 664.095C326.608 666.28 328.266 668.052 330.312 668.052Z" fill="#3F3D56"/>
<path d="M122.997 798.739C124.922 797.715 126.614 796.254 127.953 794.456C129.292 792.659 130.246 790.569 130.748 788.336C131.25 786.102 131.286 783.777 130.856 781.527C130.426 779.276 129.539 777.153 128.257 775.308L139.258 660.426H115.485L106.742 772.603C103.983 775.108 102.18 778.606 101.675 782.436C101.17 786.266 101.997 790.161 104.001 793.382C106.005 796.604 109.045 798.929 112.546 799.916C116.047 800.903 119.765 800.484 122.997 798.739Z" fill="#FFB8B8"/>
<path d="M144.825 597.025C163.4 597.025 178.459 580.94 178.459 561.099C178.459 541.257 163.4 525.172 144.825 525.172C126.249 525.172 111.19 541.257 111.19 561.099C111.19 580.94 126.249 597.025 144.825 597.025Z" fill="#FFB8B8"/>
<path d="M151.157 727.33C149.81 727.329 148.501 726.857 147.43 725.985C146.359 725.114 145.586 723.891 145.228 722.504C142.534 712.047 135.523 694.366 124.391 669.949C121.879 664.43 120.488 658.406 120.309 652.272C120.131 646.138 121.168 640.033 123.353 634.357C125.539 628.682 128.823 623.564 132.991 619.34C137.158 615.115 142.115 611.88 147.535 609.845C152.672 607.908 158.12 607.091 163.558 607.442C168.996 607.793 174.312 609.306 179.193 611.89C184.074 614.475 188.419 618.079 191.973 622.489C195.527 626.899 198.217 632.025 199.884 637.565C208.512 666.46 208.095 697.411 207.516 709.376C207.444 710.817 206.931 712.193 206.057 713.293C205.183 714.394 203.996 715.158 202.676 715.468L152.478 727.177C152.044 727.279 151.601 727.33 151.157 727.33Z" fill="#FF6584"/>
<path d="M199.768 1068.48H216.556L224.543 999.309L199.765 999.311L199.768 1068.48Z" fill="#FFB8B8"/>
<path d="M248.935 1085.13L196.17 1085.13L196.17 1063.36L228.548 1063.35C231.225 1063.35 233.876 1063.92 236.349 1065.01C238.823 1066.11 241.07 1067.71 242.963 1069.73C244.857 1071.75 246.358 1074.15 247.383 1076.8C248.408 1079.44 248.935 1082.27 248.935 1085.13Z" fill="#2F2E41"/>
<path d="M31.8883 1045.24L46.6011 1053.88L84.7995 997.377L63.0873 984.626L31.8883 1045.24Z" fill="#FFB8B8"/>
<path d="M67.4635 1085.13L21.226 1057.98L31.0474 1038.9L59.4205 1055.56C64.1584 1058.34 67.6676 1063.02 69.1759 1068.57C70.6843 1074.11 70.0683 1080.07 67.4635 1085.13V1085.13V1085.13Z" fill="#2F2E41"/>
<path d="M198.983 1030.09C197.487 1030.09 196.043 1029.5 194.919 1028.45C193.796 1027.39 193.07 1025.94 192.878 1024.35L171.882 851.533C171.789 850.769 171.472 850.055 170.977 849.494C170.482 848.934 169.834 848.554 169.125 848.411C168.416 848.267 167.682 848.366 167.029 848.694C166.376 849.022 165.837 849.563 165.489 850.238L77.9848 1019.81C77.2628 1021.2 76.0996 1022.26 74.7067 1022.8C73.3138 1023.35 71.7837 1023.34 70.3946 1022.79L51.3213 1015.03C50.5541 1014.71 49.8531 1014.24 49.2594 1013.64C48.6656 1013.03 48.1912 1012.3 47.8638 1011.5C47.5365 1010.7 47.3629 1009.83 47.3532 1008.95C47.3435 1008.08 47.498 1007.21 47.8075 1006.39L108.424 847.341C108.577 846.937 108.681 846.513 108.733 846.081C116.943 778.205 137.833 743.688 144.039 734.726C144.492 734.068 144.791 733.302 144.909 732.494C145.027 731.687 144.962 730.86 144.718 730.085L143.865 727.351C143.524 726.266 143.454 725.105 143.662 723.982C143.87 722.859 144.349 721.814 145.051 720.949C167.415 693.74 206.395 708.587 206.787 708.74L206.982 708.817L207.104 708.996C250.813 773.023 234.652 980.982 230.969 1022.02C230.831 1023.56 230.188 1025 229.152 1026.09C228.115 1027.17 226.754 1027.83 225.308 1027.94L199.462 1030.07C199.301 1030.08 199.142 1030.09 198.983 1030.09Z" fill="#2F2E41"/>
<path d="M275.582 602.83C275.414 603.62 275.304 604.422 275.254 605.23L216.428 641.479L202.129 632.686L186.886 654.002L210.783 672.194C212.713 673.664 215.038 674.425 217.408 674.364C219.778 674.302 222.065 673.421 223.926 671.852L284.587 620.736C287.324 621.819 290.306 621.985 293.134 621.214C295.962 620.442 298.504 618.769 300.42 616.417C302.337 614.065 303.537 611.146 303.862 608.047C304.188 604.948 303.622 601.817 302.24 599.071C300.859 596.324 298.727 594.091 296.129 592.67C293.531 591.249 290.589 590.706 287.695 591.114C284.801 591.523 282.092 592.862 279.928 594.955C277.764 597.048 276.248 599.795 275.582 602.83V602.83Z" fill="#FFB8B8"/>
<path d="M214.461 643.196L195.448 669.516C194.907 670.265 194.222 670.88 193.438 671.321C192.654 671.761 191.791 672.016 190.907 672.067C190.022 672.119 189.138 671.967 188.314 671.621C187.49 671.274 186.745 670.742 186.131 670.061L164.607 646.188C161.036 643.21 158.716 638.84 158.156 634.038C157.596 629.235 158.842 624.392 161.62 620.569C164.398 616.746 168.482 614.256 172.977 613.644C177.471 613.033 182.009 614.35 185.596 617.307L212.591 633.431C213.364 633.893 214.034 634.527 214.557 635.291C215.08 636.054 215.442 636.929 215.619 637.856C215.797 638.783 215.785 639.739 215.585 640.661C215.385 641.582 215.002 642.447 214.461 643.196V643.196Z" fill="#FF6584"/>
<path d="M140.771 688.924L110.143 683.016C109.271 682.848 108.444 682.482 107.717 681.941C106.99 681.401 106.381 680.7 105.931 679.885C105.481 679.07 105.2 678.162 105.108 677.221C105.017 676.28 105.116 675.329 105.399 674.433L115.328 643.032C116.158 638.274 118.721 634.062 122.454 631.32C126.187 628.577 130.787 627.528 135.243 628.402C139.7 629.275 143.65 632.001 146.228 635.982C148.805 639.962 149.8 644.872 148.994 649.634L148.025 682.654C147.997 683.6 147.779 684.528 147.385 685.375C146.991 686.222 146.43 686.968 145.742 687.563C145.053 688.158 144.253 688.588 143.395 688.823C142.537 689.057 141.642 689.092 140.771 688.924H140.771Z" fill="#FF6584"/>
<path d="M150.148 552.835C158.793 559.155 170.143 565.651 178.973 558.921C181.735 556.675 183.741 553.533 184.691 549.967C185.642 546.401 185.486 542.601 184.246 539.138C180.018 526.224 168.402 520.539 157.295 516.181C142.855 510.516 127.133 506.009 112.226 510.066C97.3194 514.123 84.1453 529.539 86.8362 545.717C89.0002 558.727 100.489 569.552 98.8583 582.65C97.2168 595.833 83.3376 602.771 71.0845 605.127C58.8313 607.483 45.1198 608.24 36.314 617.641C25.0806 629.634 27.8857 651.069 38.4559 663.731C49.0262 676.393 64.9772 682.132 80.4338 686.034C100.913 691.204 123.062 693.921 142.512 685.341C161.962 676.762 177.098 653.667 171.463 632.01C169.083 622.863 163.477 615.132 158.059 607.606C152.641 600.079 147.154 592.209 145.087 582.975C143.365 575.28 144.64 566.346 149.417 560.573C150.286 559.563 150.833 558.285 150.979 556.922C151.125 555.559 150.863 554.181 150.231 552.987L150.148 552.835Z" fill="#2F2E41"/>
<path d="M278.342 1086H1.45729C1.07079 1086 0.700122 1085.84 0.426828 1085.54C0.153534 1085.25 0 1084.86 0 1084.44C0 1084.03 0.153534 1083.63 0.426828 1083.34C0.700122 1083.05 1.07079 1082.89 1.45729 1082.89H278.342C278.728 1082.89 279.099 1083.05 279.372 1083.34C279.645 1083.63 279.799 1084.03 279.799 1084.44C279.799 1084.86 279.645 1085.25 279.372 1085.54C279.099 1085.84 278.728 1086 278.342 1086Z" fill="#CCCCCC"/>
</svg>
