<svg width="1869" height="676" viewBox="0 0 1869 676" fill="none" xmlns="http://www.w3.org/2000/svg">
<path d="M1315.18 569.127C1256.59 569.129 1197.03 553.365 1134.68 521.537C1061.99 484.436 993.031 429.661 926.34 376.692C861.034 324.819 793.53 271.202 724.849 236.453C689.174 218.403 655.892 206.651 623.098 200.527C587.031 193.793 552.2 193.962 516.614 201.043C459.553 212.4 410.318 235.424 366.098 271.431C325.64 304.374 292.48 345.279 260.412 384.838C229.24 423.291 197.019 463.04 157.927 495.883C134.283 515.749 110.153 531.42 84.1624 543.792C83.5054 544.105 82.7511 544.144 82.0653 543.901C81.3796 543.657 80.8186 543.152 80.5057 542.495C80.1929 541.838 80.1538 541.083 80.3972 540.398C80.6405 539.712 81.1463 539.151 81.8032 538.838C107.369 526.669 131.115 511.245 154.398 491.682C193.088 459.178 225.14 419.636 256.139 381.397C288.393 341.607 321.735 300.478 362.634 267.176C407.565 230.59 457.582 207.197 515.544 195.661C551.827 188.441 587.338 188.269 624.105 195.134C657.417 201.355 691.18 213.27 727.327 231.558C796.505 266.559 864.231 320.352 929.729 372.376C996.232 425.197 1064.98 479.798 1137.17 516.65C1221.32 559.608 1300.25 572.924 1378.47 557.356C1452 542.723 1513.17 514.515 1565.47 471.12C1593.32 448.015 1615.41 423.027 1633.34 401.632C1639.2 394.649 1642.63 389.657 1645.95 384.83C1647.86 382.054 1649.83 379.182 1652.23 375.984C1698.63 314.115 1733.56 272.781 1756.05 253.127C1775.28 236.323 1795.26 223.527 1817.13 214.008C1817.8 213.718 1818.55 213.705 1819.23 213.971C1819.91 214.238 1820.45 214.762 1820.74 215.429C1821.03 216.097 1821.05 216.852 1820.78 217.529C1820.51 218.206 1819.99 218.749 1819.32 219.039C1797.98 228.33 1778.46 240.831 1759.66 257.258C1737.46 276.661 1702.79 317.713 1656.62 379.276C1654.29 382.385 1652.43 385.082 1650.47 387.939C1647.08 392.873 1643.57 397.973 1637.55 405.157C1619.45 426.74 1597.16 451.957 1568.97 475.342C1515.95 519.334 1453.99 547.922 1379.54 562.737C1358.16 566.991 1336.73 569.127 1315.18 569.128V569.127Z" fill="#3D8AFF"/>
<path d="M82.9847 544.059C82.3615 544.06 81.7566 543.849 81.2694 543.461C80.7822 543.072 80.4419 542.529 80.3043 541.921C80.1668 541.314 80.2403 540.677 80.5128 540.117C80.7852 539.556 81.2403 539.105 81.8032 538.838C107.369 526.669 131.115 511.245 154.398 491.682C193.088 459.178 225.14 419.636 256.139 381.396C288.393 341.607 321.735 300.478 362.634 267.176C407.565 230.59 457.582 207.197 515.544 195.661C551.827 188.441 587.338 188.269 624.105 195.134C657.417 201.355 691.181 213.27 727.327 231.558C796.505 266.559 864.231 320.352 929.729 372.376C942.748 382.717 956.193 393.397 969.693 403.956C970.246 404.411 970.599 405.064 970.678 405.776C970.756 406.488 970.553 407.203 970.111 407.767C969.67 408.331 969.026 408.7 968.316 408.796C967.606 408.891 966.887 408.705 966.312 408.278C952.797 397.705 939.344 387.02 926.334 376.687C861.034 324.819 793.53 271.201 724.849 236.453C689.174 218.403 655.892 206.651 623.098 200.527C587.032 193.793 552.2 193.962 516.614 201.043C459.552 212.4 410.318 235.424 366.098 271.431C325.64 304.374 292.48 345.279 260.412 384.838C229.24 423.291 197.019 463.04 157.927 495.883C134.283 515.749 110.153 531.42 84.1624 543.792C83.7946 543.968 83.3922 544.059 82.9847 544.059V544.059Z" fill="url(#paint0_linear)"/>
<path d="M3.63464 553.012C2.9553 553.009 2.30134 552.754 1.79925 552.296C1.29716 551.838 0.982592 551.211 0.916391 550.535C0.85019 549.859 1.03705 549.182 1.44085 548.636C1.84464 548.089 2.43667 547.712 3.10246 547.577C55.2828 537.192 101.309 514.786 143.811 479.08C181.29 447.593 212.84 408.671 243.352 371.031C276.127 330.601 310.017 288.794 352.241 254.412C399.308 216.088 451.673 191.59 512.331 179.519C550.709 171.881 588.259 171.695 627.127 178.954C661.994 185.466 697.201 197.868 734.758 216.871C805.435 252.63 873.835 306.96 939.984 359.5C1005.84 411.807 1073.92 465.884 1144.65 501.99C1225.38 543.199 1300.81 556.03 1375.26 541.212C1446.03 527.127 1504.81 500.056 1554.96 458.453C1578.36 439.037 1600.11 416.703 1621.44 390.174L1621.6 389.971C1629.4 380.282 1635.55 372.631 1643.56 362.022C1649.53 354.125 1655.47 346.211 1661.4 338.28C1688.2 302.36 1713.51 268.44 1745.22 240.732C1780.36 210.03 1818.36 191.424 1864.83 182.177C1865.54 182.035 1866.28 182.182 1866.88 182.586C1867.49 182.99 1867.91 183.618 1868.05 184.332C1868.19 185.046 1868.05 185.786 1867.64 186.391C1867.24 186.997 1866.61 187.416 1865.9 187.558C1820.41 196.61 1783.22 214.819 1748.83 244.864C1717.56 272.188 1692.42 305.881 1665.8 341.553C1659.87 349.495 1653.92 357.42 1647.94 365.327C1639.88 376.004 1633.7 383.685 1625.88 393.411L1625.72 393.612C1604.15 420.431 1582.15 443.023 1558.46 462.675C1507.6 504.876 1448.02 532.327 1376.33 546.593C1300.62 561.661 1224.03 548.669 1142.16 506.877C1070.94 470.522 1002.64 416.271 936.583 363.808C870.638 311.427 802.459 257.274 732.281 221.766C695.195 203.003 660.469 190.762 626.12 184.347C587.952 177.22 551.082 177.401 513.401 184.899C453.643 196.792 402.06 220.921 355.705 258.667C313.922 292.689 280.212 334.272 247.614 374.487C216.94 412.327 185.221 451.455 147.339 483.281C104.113 519.597 57.2826 542.388 4.17231 552.958C3.99217 552.995 3.81203 553.012 3.63464 553.012Z" fill="#3D8AFF"/>
<path d="M59.7278 571.57C59.0825 571.568 58.4584 571.34 57.965 570.924C57.4716 570.508 57.1405 569.931 57.0299 569.296C56.9192 568.66 57.036 568.006 57.3598 567.447C57.6837 566.889 58.1938 566.463 58.8006 566.244C96.9641 552.518 131.698 532.252 164.986 504.286C204.878 470.771 237.437 430.606 268.924 391.764C300.645 352.632 333.445 312.169 373.026 279.94C377.859 276.004 382.797 272.198 387.835 268.527C388.423 268.106 389.154 267.934 389.868 268.05C390.583 268.165 391.223 268.558 391.649 269.143C392.075 269.728 392.252 270.457 392.143 271.173C392.033 271.888 391.646 272.531 391.064 272.962C386.107 276.575 381.247 280.321 376.491 284.195C337.35 316.066 304.733 356.304 273.187 395.216C241.537 434.261 208.809 474.632 168.515 508.485C134.722 536.876 99.4412 557.457 60.6568 571.405C60.3505 571.516 60.0368 571.569 59.7287 571.569L59.7278 571.57Z" fill="url(#paint1_linear)"/>
<path d="M3.63464 553.012C2.9553 553.009 2.30134 552.754 1.79925 552.296C1.29716 551.838 0.982592 551.211 0.916391 550.535C0.85019 549.859 1.03705 549.182 1.44085 548.636C1.84464 548.089 2.43667 547.712 3.10246 547.577C55.2828 537.192 101.309 514.786 143.811 479.08C181.29 447.593 212.84 408.671 243.352 371.031C276.127 330.601 310.017 288.794 352.241 254.412C399.308 216.088 451.673 191.59 512.331 179.519C550.709 171.881 588.259 171.696 627.127 178.954C661.994 185.466 697.201 197.868 734.758 216.871C735.082 217.033 735.37 217.257 735.607 217.53C735.844 217.803 736.024 218.121 736.138 218.464C736.251 218.807 736.296 219.17 736.269 219.53C736.242 219.891 736.144 220.243 735.981 220.565C735.818 220.888 735.592 221.175 735.317 221.41C735.043 221.645 734.724 221.824 734.38 221.936C734.036 222.047 733.674 222.09 733.313 222.061C732.953 222.032 732.602 221.931 732.28 221.766C695.195 203.003 660.469 190.762 626.12 184.347C587.952 177.219 551.082 177.401 513.401 184.899C453.643 196.792 402.06 220.921 355.705 258.667C313.922 292.689 280.212 334.272 247.614 374.487C216.94 412.327 185.221 451.455 147.339 483.281C104.113 519.597 57.2826 542.388 4.17231 552.958C3.99217 552.995 3.81203 553.012 3.63464 553.012V553.012Z" fill="url(#paint2_linear)"/>
<path d="M41.2403 525.749C40.5936 525.748 39.9681 525.518 39.4743 525.101C38.9804 524.683 38.6499 524.104 38.5411 523.467C38.4323 522.829 38.5522 522.174 38.8796 521.616C39.207 521.058 39.7208 520.634 40.3305 520.418C125.263 490.565 176.413 427.467 230.566 360.666C297.975 277.51 367.681 191.523 509.119 163.374C549.591 155.318 589.18 155.123 630.149 162.773C666.571 169.575 703.219 182.466 742.188 202.182C814.357 238.697 883.426 293.557 950.221 346.611C955.369 350.699 960.514 354.786 965.659 358.864C965.942 359.088 966.177 359.365 966.352 359.68C966.528 359.995 966.639 360.341 966.681 360.699C966.722 361.057 966.693 361.419 966.594 361.766C966.496 362.112 966.33 362.436 966.106 362.718C965.882 363.001 965.605 363.236 965.29 363.411C964.976 363.587 964.629 363.698 964.272 363.74C963.914 363.781 963.551 363.752 963.205 363.653C962.858 363.554 962.535 363.389 962.252 363.165C957.102 359.082 951.954 354.996 946.808 350.907C880.228 298.025 811.381 243.341 739.711 207.078C701.213 187.6 665.046 174.872 629.142 168.168C588.874 160.648 549.964 160.84 510.19 168.756C370.696 196.517 301.624 281.721 234.828 364.12C180.172 431.543 128.547 495.226 42.1502 525.592C41.8493 525.699 41.5421 525.748 41.2403 525.748V525.749Z" fill="url(#paint3_linear)"/>
<path d="M127.095 595.584C126.482 595.585 125.888 595.381 125.405 595.005C124.922 594.629 124.579 594.102 124.43 593.508C124.281 592.914 124.335 592.288 124.583 591.728C124.831 591.169 125.26 590.708 125.8 590.42C150.254 577.36 174.125 561.1 196.749 542.094C240.266 505.534 274.336 463.504 307.282 422.859C337.425 385.677 368.593 347.23 404.206 318.231C440.604 288.593 481.226 269.622 528.395 260.235C556.295 254.682 583.649 254.558 612.021 259.855C639.107 264.912 667.101 274.873 697.604 290.306C760.79 322.275 825.84 373.942 888.748 423.906C952.111 474.235 1017.63 526.274 1088.39 565.286C1089.03 565.638 1089.5 566.227 1089.7 566.926C1089.91 567.625 1089.82 568.375 1089.47 569.012C1089.3 569.328 1089.06 569.606 1088.78 569.831C1088.5 570.056 1088.18 570.223 1087.83 570.324C1087.49 570.424 1087.12 570.454 1086.76 570.414C1086.41 570.374 1086.06 570.264 1085.74 570.09C1014.58 530.857 948.876 478.671 885.337 428.204C822.643 378.408 757.815 326.919 695.127 295.202C665.094 280.007 637.582 270.209 611.015 265.248C583.343 260.082 556.667 260.203 529.465 265.616C483.197 274.824 443.356 293.426 407.671 322.486C372.498 351.126 341.511 389.349 311.545 426.313C278.435 467.159 244.197 509.396 200.279 546.295C177.363 565.547 153.174 582.021 128.385 595.26C127.988 595.473 127.545 595.584 127.095 595.584H127.095Z" fill="#3D8AFF"/>
<path d="M82.9847 544.059C82.3615 544.06 81.7566 543.849 81.2694 543.461C80.7822 543.072 80.4419 542.529 80.3043 541.921C80.1668 541.314 80.2403 540.677 80.5128 540.117C80.7852 539.556 81.2403 539.105 81.8032 538.838C107.369 526.669 131.115 511.245 154.398 491.682C174.094 475.135 193.566 455.582 215.676 430.148C216.158 429.615 216.83 429.292 217.547 429.249C218.265 429.206 218.97 429.446 219.513 429.917C220.055 430.389 220.39 431.054 220.447 431.771C220.504 432.487 220.278 433.197 219.817 433.748C197.514 459.404 177.848 479.147 157.927 495.883C134.283 515.749 110.153 531.42 84.1624 543.792C83.7946 543.968 83.3922 544.059 82.9847 544.059V544.059Z" fill="url(#paint4_linear)"/>
<path d="M1314.56 651.533C1243.24 651.533 1171.53 632.754 1097.26 594.84C1060.87 576.265 1011.55 547.839 921.671 477.84C921.097 477.393 920.724 476.736 920.634 476.014C920.544 475.292 920.744 474.564 921.191 473.99C921.638 473.416 922.295 473.043 923.017 472.953C923.739 472.863 924.467 473.063 925.041 473.51C1014.56 543.228 1063.6 571.497 1099.76 589.953C1201.03 641.653 1297.45 657.393 1394.54 638.073C1479.1 621.243 1552.22 587.342 1618.05 534.43C1618.62 533.974 1619.34 533.762 1620.07 533.841C1620.79 533.92 1621.45 534.283 1621.91 534.85C1622.37 535.417 1622.58 536.142 1622.5 536.866C1622.42 537.589 1622.06 538.251 1621.49 538.707C1554.95 592.185 1481.06 626.447 1395.61 643.454C1368.58 648.832 1341.59 651.533 1314.56 651.533Z" fill="#7EB2FF"/>
<path d="M1314.69 635.05C1245.92 635.051 1176.63 616.874 1104.74 580.179C1026.2 540.087 954.589 483.209 885.339 428.205C822.643 378.408 757.815 326.92 695.127 295.202C665.094 280.007 637.582 270.208 611.015 265.248C583.343 260.082 556.667 260.203 529.465 265.616C483.197 274.824 443.356 293.426 407.671 322.486C372.498 351.126 341.511 389.349 311.545 426.313C278.435 467.159 244.197 509.396 200.279 546.295C177.363 565.547 153.174 582.021 128.384 595.26C127.742 595.603 126.99 595.677 126.294 595.465C125.598 595.254 125.014 594.775 124.671 594.133C124.329 593.491 124.255 592.739 124.466 592.043C124.678 591.347 125.157 590.763 125.799 590.42C150.254 577.36 174.125 561.1 196.749 542.094C240.266 505.534 274.336 463.504 307.282 422.858C337.425 385.677 368.593 347.23 404.206 318.232C440.604 288.593 481.226 269.622 528.395 260.235C556.295 254.682 583.65 254.558 612.021 259.855C639.107 264.912 667.101 274.873 697.604 290.306C760.791 322.275 825.84 373.942 888.748 423.906C957.792 478.745 1029.18 535.45 1107.24 575.292C1205.09 625.244 1298.02 640.498 1391.32 621.929C1475.37 605.203 1534.03 578.71 1600.56 527.439C1607.04 522.444 1611.99 518.444 1618.09 512.783C1618.62 512.304 1619.33 512.054 1620.04 512.087C1620.76 512.121 1621.44 512.434 1621.93 512.961C1622.42 513.488 1622.68 514.185 1622.66 514.904C1622.64 515.622 1622.34 516.304 1621.82 516.803C1615.57 522.608 1610.52 526.692 1603.91 531.784C1536.65 583.622 1477.34 610.405 1392.4 627.31C1366.5 632.464 1340.63 635.05 1314.69 635.05H1314.69Z" fill="#3D8AFF"/>
<path d="M1270.41 632.522C1270.31 632.522 1270.2 632.518 1270.1 632.505C1215.68 626.317 1161.59 609.2 1104.74 580.179C1026.2 540.087 954.589 483.209 885.339 428.205C822.643 378.408 757.815 326.92 695.127 295.202C665.094 280.007 637.582 270.208 611.015 265.248C583.343 260.082 556.668 260.203 529.465 265.616C483.197 274.824 443.357 293.427 407.671 322.486C372.498 351.126 341.511 389.349 311.545 426.313C278.435 467.16 244.197 509.396 200.279 546.295C177.363 565.547 153.174 582.021 128.385 595.26C128.067 595.43 127.719 595.535 127.36 595.571C127.002 595.606 126.64 595.57 126.295 595.465C125.95 595.361 125.63 595.189 125.351 594.96C125.073 594.732 124.842 594.451 124.672 594.133C124.503 593.815 124.397 593.467 124.362 593.108C124.327 592.75 124.362 592.388 124.467 592.043C124.572 591.698 124.743 591.378 124.972 591.099C125.201 590.821 125.482 590.59 125.8 590.42C150.254 577.36 174.125 561.1 196.749 542.094C240.266 505.534 274.336 463.504 307.282 422.858C337.425 385.677 368.593 347.23 404.206 318.232C440.604 288.593 481.226 269.622 528.395 260.235C556.296 254.682 583.65 254.558 612.021 259.855C639.107 264.912 667.101 274.873 697.604 290.306C760.791 322.275 825.84 373.942 888.748 423.906C957.792 478.745 1029.18 535.45 1107.24 575.292C1163.49 604.009 1216.97 620.941 1270.72 627.054C1271.42 627.131 1272.06 627.472 1272.51 628.008C1272.96 628.543 1273.19 629.233 1273.16 629.933C1273.12 630.634 1272.81 631.293 1272.3 631.775C1271.79 632.256 1271.11 632.524 1270.41 632.522V632.522Z" fill="#2C80FF"/>
<path d="M1315.18 569.127C1256.59 569.129 1197.03 553.365 1134.68 521.537C1061.99 484.436 993.031 429.661 926.34 376.692C861.034 324.819 793.53 271.202 724.849 236.452C689.174 218.403 655.892 206.652 623.098 200.527C587.031 193.794 552.2 193.962 516.614 201.043C459.552 212.4 410.318 235.424 366.098 271.431C325.64 304.374 292.48 345.279 260.412 384.838C229.24 423.291 197.019 463.04 157.927 495.883C134.283 515.749 110.153 531.42 84.1624 543.792C83.5054 544.105 82.7511 544.144 82.0653 543.901C81.3796 543.657 80.8186 543.152 80.5057 542.495C80.1929 541.838 80.1538 541.083 80.3972 540.398C80.6405 539.712 81.1463 539.151 81.8032 538.838C107.369 526.669 131.114 511.245 154.398 491.682C193.088 459.178 225.14 419.636 256.139 381.396C288.394 341.607 321.735 300.478 362.634 267.176C407.565 230.59 457.582 207.197 515.544 195.661C551.827 188.441 587.338 188.269 624.105 195.134C657.417 201.355 691.18 213.27 727.327 231.557C796.505 266.559 864.231 320.352 929.729 372.375C996.232 425.197 1064.98 479.799 1137.17 516.65C1221.32 559.608 1300.25 572.924 1378.47 557.356C1452 542.723 1513.17 514.515 1565.47 471.12C1584.48 455.343 1602.81 437.063 1623.16 413.591C1623.64 413.057 1624.31 412.733 1625.03 412.688C1625.75 412.644 1626.45 412.883 1626.99 413.354C1627.54 413.824 1627.88 414.489 1627.93 415.206C1627.99 415.922 1627.77 416.633 1627.31 417.185C1606.76 440.89 1588.22 459.368 1568.97 475.342C1515.95 519.334 1453.99 547.922 1379.54 562.737C1358.16 566.991 1336.73 569.127 1315.18 569.128V569.127Z" fill="#73ABFF"/>
<path d="M3.63464 553.012C2.9553 553.009 2.30134 552.754 1.79925 552.296C1.29716 551.838 0.982592 551.211 0.916391 550.535C0.85019 549.858 1.03705 549.182 1.44085 548.636C1.84464 548.089 2.43667 547.712 3.10246 547.577C55.2828 537.192 101.309 514.786 143.811 479.08C181.29 447.593 212.84 408.671 243.352 371.031C276.127 330.601 310.017 288.794 352.241 254.412C399.308 216.088 451.673 191.59 512.331 179.519C550.709 171.88 588.259 171.696 627.127 178.954C661.994 185.466 697.201 197.868 734.758 216.87C805.435 252.631 873.835 306.96 939.984 359.501C1005.84 411.807 1073.92 465.884 1144.65 501.99C1225.38 543.199 1300.81 556.03 1375.26 541.212C1398.22 536.643 1420.23 530.608 1440.68 523.275C1441.36 523.051 1442.1 523.101 1442.75 523.415C1443.39 523.728 1443.88 524.281 1444.13 524.955C1444.37 525.628 1444.34 526.37 1444.04 527.021C1443.74 527.672 1443.2 528.181 1442.53 528.439C1421.83 535.864 1399.55 541.971 1376.33 546.593C1300.62 561.661 1224.03 548.669 1142.16 506.877C1070.94 470.522 1002.64 416.271 936.583 363.808C870.638 311.427 802.459 257.274 732.281 221.766C695.195 203.003 660.469 190.762 626.12 184.347C587.952 177.22 551.083 177.401 513.401 184.899C453.643 196.792 402.061 220.921 355.705 258.667C313.922 292.689 280.212 334.272 247.614 374.487C216.94 412.327 185.221 451.455 147.339 483.281C104.113 519.597 57.2826 542.388 4.17231 552.958C3.99217 552.995 3.81203 553.012 3.63464 553.012V553.012Z" fill="#0E6EFF"/>
<path d="M210.123 144.504C209.571 144.504 209.032 144.337 208.576 144.026C208.121 143.715 207.769 143.273 207.568 142.759C207.367 142.245 207.326 141.683 207.45 141.145C207.573 140.607 207.856 140.119 208.261 139.744C217.879 130.863 227.769 122.28 237.917 114.009C268.189 89.3598 300.432 68.2142 333.75 51.1606C334.071 50.9918 334.423 50.8883 334.784 50.8562C335.145 50.824 335.509 50.8639 335.855 50.9734C336.201 51.0829 336.522 51.2599 336.799 51.4941C337.076 51.7284 337.303 52.0152 337.469 52.3381C337.634 52.6609 337.734 53.0134 337.762 53.375C337.79 53.7366 337.747 54.1003 337.633 54.4449C337.52 54.7895 337.34 55.1082 337.102 55.3826C336.865 55.657 336.576 55.8817 336.251 56.0435C303.274 72.9234 271.356 93.8568 241.382 118.264C231.322 126.463 221.518 134.971 211.984 143.776C211.478 144.244 210.813 144.504 210.123 144.504Z" fill="#3D8AFF"/>
<path d="M949.357 144.295C948.778 144.295 948.213 144.111 947.745 143.769C898.245 107.748 855.133 80.8961 812.069 59.265C759.258 32.74 706.474 14.6312 655.182 5.44324C654.827 5.37972 654.489 5.24697 654.186 5.05259C653.882 4.8582 653.62 4.60598 653.414 4.31032C653.209 4.01466 653.063 3.68136 652.986 3.32945C652.909 2.97753 652.902 2.61389 652.966 2.25929C653.029 1.90442 653.161 1.56546 653.355 1.26186C653.549 0.958255 653.802 0.695975 654.097 0.490056C654.393 0.284136 654.727 0.138629 655.079 0.0618753C655.431 -0.0148782 655.795 -0.0213678 656.15 0.0427787C707.961 9.32396 761.249 27.5992 814.532 54.3629C857.869 76.1311 901.225 103.132 950.975 139.334C951.443 139.675 951.792 140.155 951.971 140.706C952.149 141.258 952.149 141.851 951.969 142.402C951.79 142.953 951.44 143.433 950.971 143.773C950.502 144.113 949.937 144.296 949.357 144.295Z" fill="#88B8FF"/>
<path d="M1315.77 371.48C1297.91 371.48 1279.18 367.924 1259.12 360.765C1258.44 360.516 1257.88 360.009 1257.58 359.354C1257.27 358.699 1257.23 357.949 1257.48 357.268C1257.72 356.587 1258.22 356.029 1258.87 355.716C1259.53 355.403 1260.28 355.36 1260.96 355.596C1289.72 365.858 1315.55 368.486 1339.92 363.636C1380.43 355.574 1413.03 340.92 1439.59 318.838C1440.15 318.382 1440.87 318.165 1441.59 318.235C1442.31 318.305 1442.97 318.657 1443.43 319.212C1443.89 319.768 1444.12 320.484 1444.05 321.204C1443.99 321.924 1443.65 322.59 1443.1 323.057C1415.81 345.739 1382.42 360.772 1340.99 369.017C1332.75 370.657 1324.36 371.48 1315.77 371.48H1315.77Z" fill="#BED8FF"/>
<path d="M1539.26 206.742C1538.75 206.741 1538.25 206.598 1537.81 206.328C1537.38 206.058 1537.03 205.672 1536.8 205.214C1536.57 204.756 1536.48 204.243 1536.53 203.735C1536.58 203.226 1536.77 202.741 1537.08 202.334C1552.59 182.004 1571.59 157.988 1594.89 134.001C1604.88 123.703 1615.29 113.823 1626.09 104.385C1626.64 103.92 1627.35 103.69 1628.07 103.744C1628.79 103.798 1629.45 104.132 1629.93 104.674C1630.4 105.217 1630.64 105.924 1630.6 106.642C1630.56 107.361 1630.23 108.034 1629.7 108.517C1619.01 117.856 1608.71 127.633 1598.83 137.823C1575.73 161.605 1556.86 185.462 1541.44 205.663C1541.18 205.999 1540.85 206.271 1540.48 206.458C1540.1 206.645 1539.68 206.742 1539.26 206.742V206.742Z" fill="#3D8AFF"/>
<path d="M1076.06 639.123C1075.64 639.123 1075.21 639.026 1074.81 638.822C1037.71 619.884 999.309 596.173 957.416 566.333C957.122 566.124 956.873 565.859 956.682 565.554C956.491 565.249 956.361 564.909 956.302 564.553C956.242 564.198 956.253 563.835 956.334 563.483C956.415 563.132 956.564 562.801 956.773 562.507C956.982 562.214 957.247 561.964 957.552 561.773C957.857 561.582 958.197 561.452 958.553 561.393C958.908 561.333 959.272 561.344 959.623 561.425C959.974 561.506 960.306 561.655 960.599 561.864C1002.27 591.546 1040.45 615.121 1077.31 633.936C1077.86 634.216 1078.3 634.672 1078.55 635.232C1078.81 635.792 1078.87 636.423 1078.73 637.022C1078.58 637.622 1078.24 638.155 1077.76 638.536C1077.27 638.917 1076.67 639.124 1076.06 639.123V639.123Z" fill="#206EE3"/>
<path d="M817.966 458.076C817.371 458.076 816.773 457.884 816.271 457.488C769.558 420.692 715.524 379.31 665.403 353.95C649.195 345.75 634.419 339.639 620.229 335.269C612.995 333.041 605.83 331.258 598.932 329.97C598.22 329.833 597.592 329.42 597.184 328.821C596.777 328.222 596.622 327.486 596.755 326.773C596.888 326.061 597.298 325.43 597.894 325.019C598.49 324.607 599.225 324.449 599.938 324.577C607.042 325.903 614.412 327.736 621.844 330.026C636.333 334.488 651.392 340.713 667.879 349.055C718.452 374.642 772.745 416.218 819.666 453.179C820.114 453.532 820.44 454.015 820.6 454.563C820.76 455.11 820.746 455.694 820.559 456.232C820.372 456.771 820.022 457.238 819.557 457.569C819.092 457.899 818.536 458.077 817.966 458.076V458.076Z" fill="#68A4FF"/>
<path d="M204.824 625.023C204.24 625.024 203.671 624.838 203.2 624.493C202.729 624.148 202.381 623.661 202.205 623.104C202.03 622.547 202.037 621.949 202.225 621.396C202.413 620.843 202.773 620.365 203.251 620.031C215.342 611.592 227.402 602.331 239.098 592.507C287.433 551.897 323.511 507.393 358.4 464.355C378.523 439.531 399.324 413.871 420.682 392.291C424.184 388.753 427.663 385.364 431.026 382.217C436.035 377.53 440.999 373.18 445.778 369.288C446.343 368.828 447.066 368.611 447.79 368.685C448.514 368.759 449.179 369.118 449.638 369.682C450.098 370.246 450.314 370.969 450.24 371.693C450.167 372.417 449.808 373.082 449.244 373.541C444.56 377.355 439.692 381.622 434.775 386.224C431.314 389.468 427.916 392.778 424.582 396.151C403.415 417.537 382.701 443.091 362.669 467.804C327.611 511.049 291.365 555.76 242.627 596.707C230.807 606.637 218.615 615.998 206.392 624.529C205.932 624.851 205.385 625.024 204.824 625.023V625.023Z" fill="#B8D4FF"/>
<path d="M170.266 208.934C169.737 208.934 169.22 208.781 168.776 208.494C168.333 208.206 167.981 207.797 167.765 207.314C167.548 206.832 167.476 206.297 167.556 205.775C167.636 205.252 167.866 204.764 168.217 204.369C195.406 173.787 220.856 149.13 248.31 126.773C316.706 71.08 392.558 35.528 480.203 18.0858C500.051 14.1356 520.111 11.4362 539.827 10.0628C540.548 10.0219 541.255 10.2663 541.797 10.7433C542.338 11.2202 542.67 11.8912 542.72 12.6109C542.77 13.3306 542.534 14.0412 542.064 14.5885C541.595 15.1359 540.928 15.4762 540.209 15.5355C520.723 16.8934 500.895 19.5616 481.274 23.4661C394.529 40.73 319.459 75.9135 251.775 131.027C224.554 153.194 199.307 177.656 172.317 208.014C172.06 208.304 171.744 208.536 171.391 208.694C171.037 208.853 170.654 208.935 170.266 208.934V208.934Z" fill="#3D8AFF"/>
<path d="M1315.6 387.973C1285.5 387.973 1253.5 378.909 1217 360.275C1160.43 331.4 1098.69 282.365 1038.99 234.944C966.118 177.062 890.788 117.226 804.68 73.974C767.582 55.3394 730.436 40.9248 694.275 31.1279C693.92 31.0401 693.586 30.8825 693.294 30.6641C693.001 30.4457 692.755 30.1711 692.569 29.8562C692.384 29.5414 692.263 29.1927 692.215 28.8307C692.166 28.4686 692.19 28.1005 692.286 27.7479C692.381 27.3953 692.546 27.0653 692.771 26.7773C692.996 26.4894 693.276 26.2492 693.594 26.0708C693.913 25.8925 694.264 25.7797 694.627 25.7389C694.99 25.6981 695.358 25.7303 695.708 25.8335C732.225 35.7246 769.716 50.2718 807.144 69.071C893.756 112.578 969.313 172.591 1042.38 230.63C1101.9 277.9 1163.41 326.762 1219.49 355.39C1266.61 379.44 1305.9 387.189 1343.13 379.779C1386.39 371.169 1421.39 355.376 1450.11 331.495C1479.03 307.456 1504.68 273.065 1529.5 239.808C1561.66 196.706 1592.04 155.994 1636.92 116.78C1649.77 105.555 1663.16 95.1269 1676.73 85.7872C1677.33 85.3746 1678.07 85.2169 1678.79 85.349C1679.5 85.481 1680.14 85.8919 1680.55 86.4913C1680.96 87.0907 1681.12 87.8294 1680.99 88.545C1680.86 89.2606 1680.44 89.8945 1679.85 90.3071C1666.45 99.5279 1653.22 109.824 1640.53 120.912C1596.09 159.743 1565.88 200.227 1533.9 243.089C1508.89 276.603 1483.03 311.258 1453.62 335.715C1424.17 360.194 1388.38 376.368 1344.2 385.16C1334.78 387.036 1325.2 387.978 1315.6 387.973V387.973Z" fill="#3D8AFF"/>
<path d="M1769.11 421.443C1768.6 421.443 1768.1 421.301 1767.67 421.034C1767.23 420.766 1766.88 420.384 1766.66 419.929C1766.43 419.474 1766.33 418.965 1766.38 418.458C1766.42 417.952 1766.61 417.467 1766.91 417.06C1789.41 386.9 1810.66 358.413 1831.86 339.893C1832.13 339.65 1832.45 339.462 1832.79 339.342C1833.13 339.221 1833.5 339.171 1833.86 339.192C1834.22 339.214 1834.58 339.308 1834.91 339.468C1835.23 339.628 1835.53 339.852 1835.76 340.126C1836 340.4 1836.19 340.719 1836.3 341.064C1836.42 341.409 1836.46 341.774 1836.43 342.137C1836.41 342.5 1836.31 342.853 1836.14 343.177C1835.98 343.502 1835.75 343.789 1835.47 344.025C1814.71 362.162 1793.63 390.421 1771.31 420.341C1771.05 420.683 1770.72 420.962 1770.34 421.153C1769.96 421.345 1769.53 421.444 1769.11 421.443V421.443Z" fill="#3D8AFF"/>
<path d="M1713.73 412.261C1713.21 412.261 1712.69 412.11 1712.25 411.826C1711.81 411.542 1711.46 411.136 1711.24 410.658C1711.02 410.18 1710.94 409.65 1711.02 409.13C1711.09 408.609 1711.31 408.121 1711.66 407.724C1732.09 384.09 1742.07 371.363 1763.93 343.481C1767.65 338.734 1771.71 333.559 1776.21 327.829C1776.66 327.256 1777.32 326.886 1778.04 326.799C1778.76 326.713 1779.49 326.916 1780.06 327.366C1780.64 327.815 1781.01 328.474 1781.09 329.196C1781.18 329.919 1780.98 330.646 1780.53 331.218C1776.03 336.947 1771.97 342.12 1768.25 346.866C1747 373.973 1736.33 387.579 1715.81 411.312C1715.55 411.61 1715.23 411.849 1714.87 412.013C1714.52 412.177 1714.13 412.261 1713.73 412.261V412.261Z" fill="#3D8AFF"/>
<path d="M1401.49 675.794C1400.82 675.789 1400.16 675.534 1399.66 675.076C1399.16 674.619 1398.85 673.992 1398.78 673.317C1398.71 672.641 1398.9 671.965 1399.3 671.419C1399.71 670.873 1400.3 670.495 1400.96 670.359C1476.85 655.256 1542.06 628.627 1600.33 588.951C1600.63 588.744 1600.96 588.597 1601.32 588.521C1601.67 588.444 1602.04 588.438 1602.39 588.504C1602.75 588.569 1603.09 588.705 1603.4 588.903C1603.7 589.101 1603.96 589.358 1604.17 589.657C1604.37 589.957 1604.51 590.295 1604.59 590.65C1604.66 591.005 1604.66 591.372 1604.59 591.728C1604.52 592.084 1604.38 592.422 1604.18 592.724C1603.98 593.026 1603.72 593.285 1603.42 593.485C1544.53 633.585 1478.66 660.491 1402.03 675.74C1401.85 675.776 1401.67 675.794 1401.49 675.794L1401.49 675.794Z" fill="#99C2FF"/>
<path d="M1172.07 661.415C1171.79 661.415 1171.51 661.373 1171.23 661.282C1142.07 651.888 1112.14 639.398 1082.29 624.161C999.354 581.824 925.765 523.375 854.6 466.849C793.831 418.586 731.024 368.703 672.833 339.262C647.038 326.211 623.853 317.879 601.952 313.789C580.578 309.8 560.021 309.884 539.104 314.046C538.398 314.169 537.672 314.012 537.081 313.607C536.489 313.202 536.08 312.581 535.94 311.878C535.8 311.175 535.941 310.446 536.332 309.845C536.723 309.244 537.334 308.821 538.033 308.665C559.648 304.364 580.885 304.275 602.959 308.396C625.378 312.583 649.045 321.079 675.31 334.367C733.999 364.06 797.029 414.118 857.982 462.529C928.967 518.91 1002.34 577.187 1084.79 619.274C1114.38 634.378 1144.03 646.755 1172.91 656.06C1173.53 656.26 1174.07 656.676 1174.41 657.233C1174.75 657.79 1174.88 658.451 1174.78 659.097C1174.68 659.743 1174.35 660.331 1173.86 660.756C1173.36 661.181 1172.73 661.415 1172.07 661.415V661.415Z" fill="#3D8AFF"/>
<path d="M127.609 650.486C126.983 650.486 126.376 650.273 125.888 649.881C125.4 649.489 125.061 648.942 124.927 648.33C124.793 647.719 124.872 647.08 125.151 646.52C125.43 645.959 125.892 645.511 126.461 645.25C162.583 628.62 195.965 607.245 228.511 579.904C275.644 540.304 311.219 496.42 345.621 453.981C359.781 436.515 374.397 418.483 389.284 401.774C389.522 401.498 389.812 401.272 390.137 401.11C390.463 400.947 390.818 400.851 391.181 400.827C391.544 400.803 391.909 400.852 392.253 400.97C392.597 401.088 392.914 401.274 393.186 401.516C393.458 401.758 393.679 402.052 393.836 402.38C393.993 402.709 394.084 403.065 394.102 403.428C394.12 403.792 394.065 404.155 393.941 404.498C393.818 404.84 393.627 405.154 393.38 405.422C378.58 422.039 364.003 440.019 349.907 457.407C315.317 500.076 279.575 544.167 232.04 584.105C199.113 611.765 165.328 633.397 128.755 650.234C128.396 650.4 128.005 650.486 127.609 650.486V650.486Z" fill="#A0C6FF"/>
<path d="M101.715 317.129C101.192 317.129 100.68 316.979 100.239 316.698C99.7987 316.416 99.4476 316.015 99.2275 315.54C99.0075 315.066 98.9276 314.538 98.9974 314.02C99.0671 313.502 99.2836 313.014 99.6213 312.615C109.084 301.419 118.847 289.376 128.287 277.73C165.8 231.452 204.588 183.604 258.703 139.538C324.966 85.5815 398.469 51.1341 483.416 34.2286C532.335 24.4939 581.826 22.8699 630.511 29.4015C631.233 29.4983 631.886 29.8775 632.327 30.4559C632.769 31.0342 632.962 31.7642 632.866 32.4853C632.769 33.2065 632.39 33.8596 631.811 34.3011C631.233 34.7426 630.503 34.9362 629.782 34.8395C581.694 28.3856 532.809 29.9931 484.487 39.6099C400.441 56.3362 327.719 90.4141 262.168 143.792C208.493 187.501 169.887 235.125 132.552 281.181C123.091 292.853 113.311 304.917 103.812 316.157C103.555 316.462 103.233 316.707 102.871 316.875C102.509 317.043 102.114 317.13 101.715 317.129V317.129Z" fill="#8AB9FF"/>
<path d="M1315.49 404.452C1282.82 404.452 1248.4 394.789 1209.51 374.935C1151.48 345.308 1089.08 295.748 1028.73 247.818C956.53 190.465 881.876 131.169 797.293 88.6822C772.296 76.1275 747.203 65.4985 722.711 57.0914C722.023 56.8551 721.456 56.3551 721.137 55.7014C720.818 55.0477 720.771 54.2939 721.007 53.6057C721.243 52.9176 721.744 52.3515 722.397 52.0321C723.051 51.7126 723.805 51.6659 724.493 51.9022C749.217 60.3879 774.539 71.1138 799.755 83.7792C884.845 126.52 959.724 185.996 1032.14 243.513C1092.28 291.284 1154.46 340.671 1212.01 370.048C1262.59 395.871 1305.28 404.093 1346.34 395.923C1392.36 386.764 1429.75 369.831 1460.63 344.153C1491.05 318.868 1517.3 283.682 1542.69 249.655C1574.31 207.272 1604.18 167.241 1647.75 129.176C1655.41 122.483 1663.29 116.064 1671.4 109.931C1671.98 109.493 1672.72 109.303 1673.44 109.403C1674.16 109.503 1674.81 109.886 1675.25 110.466C1675.69 111.047 1675.88 111.778 1675.78 112.499C1675.67 113.219 1675.29 113.871 1674.71 114.309C1666.71 120.364 1658.92 126.701 1651.36 133.307C1608.23 170.989 1578.53 210.793 1547.09 252.933C1521.51 287.22 1495.05 322.671 1464.14 348.372C1432.53 374.648 1394.35 391.963 1347.42 401.304C1336.9 403.401 1326.21 404.455 1315.49 404.452Z" fill="#9CC4FF"/>
<path d="M1314.44 668.015C1240.58 668.015 1166.43 648.629 1089.78 609.5C1008.3 567.913 935.368 509.982 864.835 453.96C803.441 405.198 739.957 354.778 680.263 324.576C653.056 310.81 628.428 301.989 604.972 297.609C581.501 293.227 558.905 293.323 535.891 297.903C495.017 306.037 459.877 322.428 428.458 348.013C395.923 374.505 366.024 411.388 337.109 447.056C310.601 479.753 283.217 513.535 250.498 545.241C250.239 545.491 249.933 545.689 249.598 545.821C249.263 545.954 248.906 546.019 248.545 546.014C248.185 546.008 247.83 545.931 247.499 545.788C247.168 545.645 246.869 545.439 246.618 545.18C246.368 544.921 246.17 544.616 246.038 544.281C245.905 543.946 245.84 543.588 245.845 543.228C245.851 542.867 245.927 542.512 246.071 542.181C246.214 541.85 246.42 541.551 246.679 541.3C279.161 509.823 306.441 476.172 332.823 443.63C361.938 407.715 392.018 370.609 424.992 343.759C457.122 317.596 493.048 300.835 534.821 292.522C558.531 287.803 581.807 287.703 605.98 292.215C629.954 296.692 655.062 305.675 682.741 319.68C742.932 350.134 806.638 400.732 868.248 449.663C938.57 505.518 1011.29 563.274 1092.27 604.614C1196.97 658.061 1296.89 674.287 1397.75 654.215C1487.78 636.298 1563.27 601.268 1628.53 547.125C1683.11 501.835 1719.01 453.731 1753.72 407.211C1767.42 388.849 1780.36 371.512 1793.43 356.126C1793.9 355.58 1794.57 355.242 1795.29 355.188C1796.01 355.133 1796.73 355.364 1797.28 355.832C1797.83 356.3 1798.17 356.967 1798.23 357.687C1798.3 358.407 1798.07 359.123 1797.61 359.678C1784.65 374.932 1771.77 392.201 1758.12 410.484C1723.21 457.27 1687.12 505.641 1632.03 551.348C1566.06 606.088 1489.77 641.496 1398.82 659.597C1370.66 665.202 1342.57 668.014 1314.44 668.015V668.015Z" fill="#79AFFF"/>
<path d="M143.204 292.566C142.685 292.565 142.178 292.419 141.739 292.142C141.301 291.865 140.95 291.47 140.728 291.002C140.505 290.534 140.419 290.013 140.48 289.498C140.542 288.983 140.747 288.497 141.074 288.094L141.136 288.019C149.613 277.561 158.38 266.747 167.275 256.053C183.52 236.523 197.423 220.754 211.028 206.428C211.275 206.162 211.572 205.948 211.902 205.798C212.232 205.648 212.589 205.565 212.951 205.554C213.314 205.543 213.675 205.604 214.014 205.733C214.353 205.862 214.663 206.057 214.926 206.307C215.189 206.557 215.4 206.856 215.546 207.188C215.692 207.52 215.772 207.877 215.779 208.24C215.786 208.603 215.722 208.963 215.589 209.301C215.456 209.638 215.258 209.946 215.005 210.206C201.486 224.444 187.659 240.126 171.493 259.561C162.62 270.229 153.865 281.03 145.397 291.474L145.336 291.551C145.079 291.868 144.754 292.124 144.384 292.3C144.015 292.476 143.611 292.566 143.203 292.566H143.204Z" fill="#3D8AFF"/>
<path d="M1315.37 420.935C1280.12 420.935 1243.32 410.672 1202.03 389.596C1142.52 359.219 1079.46 309.133 1018.48 260.695C946.941 203.869 872.969 145.115 789.905 103.391C686.489 51.4468 587.635 35.8654 487.699 55.7537C426.907 67.8512 373.012 88.9931 322.937 120.385C322.32 120.772 321.575 120.898 320.866 120.735C320.157 120.573 319.541 120.135 319.155 119.519C318.768 118.902 318.642 118.157 318.805 117.448C318.967 116.739 319.405 116.123 320.022 115.737C370.673 83.984 425.171 62.6025 486.628 50.3724C587.811 30.2363 687.818 45.9741 792.367 98.4883C875.938 140.465 950.135 199.4 1021.89 256.394C1082.67 304.669 1145.51 354.582 1204.52 384.709C1258.58 412.306 1304.67 421.001 1349.56 412.066C1368.57 408.281 1386.49 403.135 1402.81 396.771C1403.48 396.507 1404.24 396.522 1404.91 396.815C1405.57 397.107 1406.09 397.652 1406.36 398.33C1406.62 399.008 1406.61 399.763 1406.32 400.429C1406.02 401.095 1405.48 401.618 1404.8 401.882C1388.18 408.364 1369.95 413.601 1350.63 417.447C1339.02 419.767 1327.21 420.935 1315.37 420.935V420.935Z" fill="#3D8AFF"/>
<path d="M1498.41 337.638C1497.87 337.638 1497.34 337.481 1496.9 337.186C1496.45 336.89 1496.1 336.469 1495.88 335.976C1495.67 335.482 1495.61 334.938 1495.71 334.409C1495.8 333.881 1496.05 333.392 1496.42 333.003C1517.77 310.585 1537.15 284.612 1555.89 259.494C1586.97 217.832 1616.33 178.482 1658.58 141.57C1677.36 125.162 1697.3 110.712 1717.84 98.619C1718.15 98.4342 1718.5 98.3125 1718.86 98.261C1719.21 98.2095 1719.58 98.2292 1719.93 98.319C1720.28 98.4087 1720.61 98.5667 1720.9 98.784C1721.18 99.0013 1721.43 99.2735 1721.61 99.5849C1721.79 99.8964 1721.91 100.241 1721.96 100.599C1722.01 100.957 1721.99 101.321 1721.9 101.671C1721.81 102.02 1721.65 102.349 1721.43 102.636C1721.21 102.924 1720.94 103.166 1720.63 103.347C1700.37 115.268 1680.71 129.518 1662.19 145.703C1620.38 182.23 1591.19 221.355 1560.28 262.775C1541.45 288.022 1521.97 314.129 1500.39 336.787C1499.85 337.353 1499.13 337.637 1498.41 337.637V337.638Z" fill="#3D8AFF"/>
<path d="M1697 456.412C1696.47 456.412 1695.95 456.258 1695.5 455.97C1695.06 455.681 1694.71 455.27 1694.49 454.786C1694.28 454.303 1694.21 453.767 1694.29 453.243C1694.37 452.72 1694.6 452.232 1694.96 451.837C1714.67 429.855 1726.42 415.081 1737.78 400.793C1740.16 397.79 1742.55 394.792 1744.95 391.8C1751.51 383.625 1757.24 376.104 1762.78 368.83C1773.8 354.366 1783.32 341.876 1795.61 329.098C1796.11 328.573 1796.8 328.271 1797.53 328.256C1798.26 328.242 1798.96 328.518 1799.49 329.022C1800.01 329.526 1800.31 330.219 1800.33 330.946C1800.34 331.674 1800.07 332.377 1799.56 332.902C1787.5 345.451 1778.07 357.827 1767.15 372.157C1761.58 379.456 1755.83 387.004 1749.23 395.235C1746.84 398.216 1744.47 401.187 1742.07 404.207C1730.66 418.558 1718.87 433.397 1699.04 455.5C1698.78 455.788 1698.47 456.018 1698.12 456.175C1697.76 456.332 1697.38 456.413 1697 456.412V456.412Z" fill="#3D8AFF"/>
<path d="M170.34 588.771C169.752 588.771 169.179 588.583 168.706 588.233C168.233 587.883 167.885 587.391 167.713 586.828C167.542 586.265 167.556 585.662 167.753 585.108C167.95 584.554 168.32 584.078 168.809 583.75C181.842 575.001 194.804 565.226 207.337 554.696C252.057 517.125 286.628 474.476 320.063 433.232C349.684 396.692 380.308 358.917 414.6 330.995C448.863 303.094 487.137 285.229 531.608 276.378C557.416 271.244 582.73 271.13 609.001 276.035C634.534 280.804 661.085 290.276 690.173 304.994C718.691 319.422 750.624 339.613 787.794 366.72C788.087 366.932 788.335 367.199 788.524 367.507C788.714 367.814 788.84 368.156 788.897 368.513C788.953 368.87 788.939 369.234 788.855 369.586C788.77 369.937 788.617 370.268 788.404 370.56C788.191 370.852 787.923 371.099 787.614 371.286C787.306 371.474 786.963 371.599 786.606 371.655C786.249 371.71 785.885 371.694 785.534 371.608C785.183 371.522 784.853 371.367 784.562 371.153C747.632 344.222 715.947 324.183 687.696 309.889C659.078 295.409 633.008 286.1 607.993 281.429C582.423 276.654 557.788 276.763 532.679 281.759C489.107 290.431 451.617 307.928 418.065 335.25C384.213 362.814 353.77 400.364 324.329 436.68C290.729 478.132 255.988 520.988 210.866 558.897C198.183 569.553 185.062 579.447 171.866 588.305C171.415 588.609 170.884 588.771 170.34 588.772V588.771Z" fill="#3D8AFF"/>
<path d="M1315.23 437.419C1277.43 437.419 1238.22 426.553 1194.54 404.255C1133.57 373.132 1069.86 322.522 1008.24 273.579C937.356 217.276 864.058 159.057 782.516 118.099C682.502 67.8631 587.118 52.7499 490.912 71.8965C412.263 87.5493 344.239 119.416 282.954 169.32C231.923 210.874 194.406 257.156 158.123 301.915C139.237 325.212 121.399 347.216 102.85 366.79C102.348 367.312 101.66 367.614 100.936 367.631C100.212 367.648 99.5112 367.378 98.9855 366.88C98.4599 366.381 98.1526 365.696 98.1305 364.972C98.1085 364.248 98.3735 363.545 98.8678 363.016C117.27 343.596 135.044 321.672 153.86 298.46C190.319 253.484 228.019 206.978 279.489 165.065C341.485 114.583 410.293 82.3472 489.841 66.5153C587.292 47.1208 683.831 62.3913 784.979 113.196C867.027 154.409 940.55 212.807 1011.65 269.283C1073.06 318.057 1136.56 368.495 1197.04 399.369C1254.57 428.739 1304.06 437.904 1352.77 428.209C1404.31 417.953 1446.47 398.738 1481.68 369.468C1515.09 341.691 1542.53 304.919 1569.06 269.357C1599.62 228.401 1628.48 189.728 1669.41 153.966C1691.14 134.981 1714.46 118.771 1738.72 105.784C1739.36 105.461 1740.1 105.401 1740.79 105.616C1741.47 105.832 1742.04 106.306 1742.38 106.938C1742.72 107.57 1742.8 108.309 1742.6 108.997C1742.4 109.686 1741.93 110.269 1741.31 110.621C1717.41 123.412 1694.43 139.386 1673.02 158.097C1632.53 193.475 1603.84 231.922 1573.47 272.626C1546.73 308.456 1519.1 345.495 1485.19 373.686C1449.26 403.556 1406.3 423.151 1353.84 433.59C1341.05 436.135 1328.23 437.419 1315.23 437.419V437.419Z" fill="#82B4FF"/>
<path d="M1315.09 453.903C1274.74 453.903 1233.14 442.436 1187.06 418.915C1124.62 387.043 1060.25 335.914 998.002 286.468C927.772 230.684 855.149 173.001 775.128 132.809C678.516 84.2812 586.599 69.6361 494.125 88.0394C418.172 103.154 352.497 133.917 293.348 182.084C243.641 222.559 206.667 268.17 170.909 312.28C142.166 347.736 115.017 381.224 84.5922 406.93C65.568 423.004 46.4022 434.997 25.9991 443.595C25.6671 443.735 25.3108 443.808 24.9505 443.81C24.5902 443.812 24.233 443.743 23.8993 443.607C23.5656 443.472 23.2619 443.271 23.0056 443.018C22.7493 442.765 22.5454 442.464 22.4055 442.132C22.2656 441.8 22.1925 441.443 22.1903 441.083C22.1881 440.723 22.2569 440.366 22.3928 440.032C22.5286 439.698 22.7289 439.394 22.9821 439.138C23.2353 438.882 23.5365 438.678 23.8685 438.538C43.7522 430.159 62.4573 418.449 81.0516 402.739C111.081 377.367 138.071 344.075 166.646 308.827C202.58 264.499 239.736 218.664 289.883 177.829C349.743 129.084 416.202 97.9533 493.054 82.6581C586.771 64.007 679.844 78.8066 777.59 127.905C858.117 168.353 930.966 226.215 1001.42 282.172C1063.45 331.45 1127.61 382.406 1189.55 414.029C1250.57 445.172 1303.45 454.807 1355.98 444.353C1410.27 433.548 1454.83 413.193 1492.2 382.126C1527.12 353.097 1555.15 315.53 1582.26 279.199C1612.28 238.966 1640.63 200.973 1680.24 166.362C1693.71 154.59 1707.87 143.889 1722.32 134.557C1722.62 134.361 1722.96 134.227 1723.31 134.163C1723.67 134.098 1724.03 134.103 1724.38 134.179C1724.74 134.255 1725.07 134.399 1725.37 134.604C1725.66 134.809 1725.92 135.07 1726.11 135.372C1726.31 135.675 1726.44 136.013 1726.51 136.368C1726.57 136.722 1726.56 137.086 1726.49 137.438C1726.41 137.79 1726.27 138.124 1726.06 138.42C1725.86 138.717 1725.6 138.97 1725.3 139.165C1711.07 148.355 1697.12 158.895 1683.85 170.493C1644.67 204.722 1616.5 242.487 1586.66 282.471C1559.36 319.067 1531.12 356.899 1495.71 386.344C1457.62 418.012 1412.26 438.747 1357.05 449.733C1343.13 452.506 1329.18 453.903 1315.09 453.903H1315.09Z" fill="#3D8AFF"/>
<path d="M1314.81 618.569C1248.58 618.569 1181.73 600.997 1112.23 565.517C1035.15 526.174 964.201 469.823 895.591 415.328C832.23 365.004 766.739 312.988 702.557 280.514C671.114 264.606 642.158 254.32 614.036 249.067C584.266 243.511 555.553 243.641 526.253 249.473C477.287 259.217 435.098 278.925 397.277 309.723C360.783 339.439 329.254 378.33 298.764 415.94C266.131 456.198 232.399 497.811 189.692 533.692C159.281 559.24 127.974 578.839 93.9813 593.612C93.6507 593.756 93.2952 593.833 92.9348 593.839C92.5745 593.846 92.2165 593.781 91.8812 593.649C91.546 593.516 91.24 593.32 90.9808 593.069C90.7217 592.819 90.5144 592.52 90.3707 592.189C90.2271 591.859 90.15 591.503 90.1438 591.143C90.1376 590.782 90.2024 590.424 90.3346 590.089C90.4668 589.754 90.6637 589.448 90.9141 589.189C91.1645 588.93 91.4635 588.722 91.794 588.579C125.294 574.021 156.163 554.694 186.162 529.491C228.468 493.948 262.033 452.542 294.491 412.5C325.168 374.659 356.877 335.543 393.812 305.468C432.345 274.092 475.316 254.015 525.182 244.092C555.18 238.122 584.574 237.986 615.043 243.674C643.683 249.024 673.12 259.472 705.034 275.619C769.715 308.344 835.428 360.537 898.979 411.013C967.402 465.359 1038.13 521.536 1114.72 560.632C1209.15 608.835 1298.57 623.605 1388.11 605.785C1469.89 589.51 1538.22 557.891 1597 509.123C1647.06 467.589 1681.16 421.879 1714.15 377.676C1735.21 349.447 1755.1 322.797 1776.88 301.194C1777.14 300.937 1777.44 300.734 1777.77 300.595C1778.11 300.456 1778.47 300.385 1778.83 300.385C1779.19 300.385 1779.55 300.457 1779.88 300.596C1780.22 300.735 1780.52 300.939 1780.77 301.196C1781.03 301.453 1781.23 301.758 1781.37 302.093C1781.5 302.428 1781.57 302.787 1781.57 303.149C1781.57 303.511 1781.49 303.869 1781.35 304.202C1781.21 304.535 1781 304.836 1780.74 305.089C1759.25 326.404 1739.48 352.896 1718.56 380.942C1685.37 425.418 1651.06 471.393 1600.5 513.344C1541 562.711 1471.88 594.709 1389.18 611.167C1364.42 616.096 1339.65 618.569 1314.81 618.569V618.569Z" fill="#3D8AFF"/>
<path d="M1314.95 470.389C1272.04 470.389 1228.05 458.321 1179.58 433.576C1115.68 400.957 1050.65 349.307 987.766 299.358C918.189 244.093 846.243 186.948 767.739 147.517C674.527 100.697 586.077 86.5233 497.338 104.183C424.085 118.761 360.759 148.417 303.741 194.846C255.36 234.242 218.93 279.182 183.698 322.642C154.451 358.72 126.828 392.794 95.2148 419.504C86.5901 426.792 77.779 433.403 69.0281 439.154C68.7271 439.352 68.39 439.489 68.0361 439.557C67.6823 439.624 67.3186 439.621 66.9658 439.549C66.613 439.476 66.278 439.334 65.98 439.131C65.6819 438.929 65.4267 438.67 65.2288 438.369C65.0309 438.068 64.8942 437.731 64.8266 437.377C64.759 437.023 64.7617 436.659 64.8346 436.307C64.9076 435.954 65.0493 435.619 65.2517 435.321C65.4541 435.023 65.7132 434.767 66.0143 434.57C74.5822 428.938 83.216 422.459 91.6742 415.312C122.892 388.936 150.356 355.058 179.432 319.19C214.842 275.51 251.455 230.347 300.276 190.591C358.006 143.584 422.115 113.559 496.267 98.8019C586.248 80.8915 675.856 95.2247 770.203 142.614C849.212 182.299 921.383 239.624 991.178 295.062C1053.85 344.843 1118.66 396.319 1182.07 428.689C1246.55 461.604 1302.83 471.711 1359.2 460.496C1416.24 449.142 1463.19 427.647 1502.72 394.783C1539.14 364.507 1567.76 326.146 1595.44 289.049C1624.93 249.53 1652.77 212.218 1691.07 178.756C1721.12 152.496 1753.08 132.917 1788.78 118.903C1789.46 118.637 1790.21 118.651 1790.88 118.942C1791.55 119.233 1792.07 119.777 1792.34 120.454C1792.6 121.131 1792.59 121.886 1792.3 122.553C1792.01 123.22 1791.46 123.744 1790.78 124.01C1755.69 137.79 1724.25 157.049 1694.68 182.889C1656.82 215.965 1629.15 253.051 1599.85 292.314C1571.97 329.684 1543.15 368.31 1506.23 399.001C1465.98 432.466 1418.24 454.341 1360.27 465.877C1345.2 468.876 1330.14 470.389 1314.95 470.389V470.389Z" fill="#3D8AFF"/>
<path d="M1314.94 602.089C1251.25 602.089 1186.83 585.12 1119.71 550.857C1044.09 512.257 973.806 456.433 905.836 402.447C841.837 351.614 775.672 299.062 709.988 265.827C677.135 249.206 646.737 238.431 617.057 232.888C585.187 226.938 554.433 227.082 523.04 233.33C471.375 243.611 426.838 264.425 386.884 296.958C349.068 327.752 316.994 367.316 285.977 405.577C253.836 445.228 220.606 486.221 179.104 521.089C171.548 527.442 163.768 533.521 155.777 539.316C155.485 539.528 155.154 539.679 154.804 539.763C154.453 539.847 154.09 539.86 153.734 539.803C153.378 539.746 153.037 539.62 152.73 539.431C152.423 539.243 152.157 538.995 151.945 538.704C151.734 538.412 151.582 538.081 151.499 537.731C151.415 537.38 151.401 537.017 151.458 536.661C151.515 536.305 151.641 535.964 151.83 535.657C152.019 535.35 152.266 535.084 152.558 534.872C160.442 529.154 168.119 523.156 175.574 516.889C216.675 482.358 249.736 441.572 281.709 402.128C312.908 363.644 345.163 323.856 383.419 292.703C424.085 259.59 469.405 238.409 521.969 227.948C554.061 221.562 585.494 221.413 618.064 227.494C648.263 233.134 679.141 244.071 712.465 260.932C778.647 294.417 845.035 347.147 909.237 398.141C977.007 451.969 1047.07 507.62 1122.2 545.97C1213.21 592.426 1299.13 606.709 1384.9 589.642C1463.93 573.915 1529.87 543.433 1586.49 496.455C1635.04 456.168 1668.56 411.253 1700.97 367.817C1726.15 334.065 1749.94 302.185 1777.71 277.917C1785.66 270.972 1793.92 264.708 1802.27 259.3C1802.88 258.904 1803.62 258.767 1804.33 258.919C1805.05 259.071 1805.67 259.499 1806.06 260.109C1806.46 260.72 1806.6 261.463 1806.44 262.174C1806.29 262.886 1805.86 263.508 1805.25 263.904C1797.12 269.171 1789.07 275.275 1781.32 282.049C1753.99 305.933 1730.37 337.586 1705.36 371.098C1672.76 414.792 1639.05 459.973 1589.99 500.678C1532.65 548.254 1465.91 579.114 1385.97 595.023C1362.33 599.728 1338.68 602.088 1314.94 602.089V602.089Z" fill="#6BA6FF"/>
<path d="M1314.8 486.876C1269.34 486.876 1222.97 474.207 1172.09 448.235C1106.73 414.869 1041.05 362.699 977.528 312.246C908.59 257.491 837.329 200.89 760.352 162.225C670.539 117.114 585.559 103.41 500.55 120.327C429.996 134.368 369.019 162.919 314.134 207.611C267.07 245.932 231.186 290.2 196.481 333.011C175.942 358.347 156.546 382.274 135.692 403.912C125.418 414.571 115.654 423.783 105.837 432.076C105.281 432.537 104.565 432.759 103.845 432.695C103.125 432.631 102.459 432.285 101.993 431.733C101.527 431.181 101.297 430.467 101.354 429.747C101.411 429.026 101.75 428.357 102.297 427.885C111.968 419.714 121.6 410.628 131.741 400.105C152.433 378.636 171.756 354.798 192.215 329.561C227.099 286.529 263.167 242.037 310.668 203.356C366.265 158.085 428.025 129.166 499.479 114.945C585.731 97.7796 671.869 111.642 762.815 157.323C840.298 196.242 911.784 253.021 980.918 307.931C1044.25 358.235 1109.71 410.232 1174.59 443.349C1242.54 478.038 1302.23 488.615 1362.41 476.639C1422.22 464.737 1471.56 442.102 1513.25 407.44C1551.16 375.921 1580.37 336.768 1608.63 298.904C1637.58 260.104 1664.91 223.467 1701.9 191.151C1722.65 173.02 1745.08 157.821 1768.56 145.974C1769.21 145.646 1769.96 145.59 1770.65 145.818C1771.34 146.045 1771.91 146.538 1772.24 147.188C1772.57 147.837 1772.63 148.59 1772.4 149.281C1772.17 149.972 1771.68 150.545 1771.03 150.873C1747.96 162.513 1725.91 177.454 1705.51 195.283C1668.96 227.215 1641.8 263.626 1613.04 302.173C1584.58 340.306 1555.17 379.724 1516.75 411.659C1474.34 446.919 1424.21 469.935 1363.48 482.021C1347.26 485.249 1331.09 486.876 1314.8 486.876V486.876Z" fill="#5E9EFF"/>
<path d="M1315.06 585.608C1253.92 585.611 1191.93 569.244 1127.19 536.196C1053.04 498.345 983.412 443.042 916.08 389.562C851.436 338.216 784.6 285.132 717.419 251.14C683.156 233.804 651.317 222.542 620.077 216.708C586.108 210.364 553.317 210.522 519.828 217.186C465.464 228.005 418.578 249.924 376.49 284.195C337.35 316.066 304.733 356.304 273.187 395.216C241.537 434.261 208.809 474.632 168.515 508.485C134.722 536.876 99.4411 557.457 60.6568 571.405C59.9736 571.646 59.2231 571.606 58.569 571.295C57.915 570.984 57.4104 570.427 57.1654 569.746C56.9204 569.064 56.9548 568.313 57.2611 567.657C57.5674 567.001 58.1208 566.492 58.8005 566.243C96.964 552.517 131.698 532.252 164.986 504.285C204.878 470.77 237.437 430.605 268.924 391.764C300.644 352.631 333.446 312.169 373.026 279.94C415.824 245.09 463.493 222.803 518.757 211.805C552.945 205.002 586.416 204.84 621.085 211.313C652.842 217.244 685.163 228.67 719.895 246.243C787.576 280.487 854.632 333.748 919.482 385.256C986.614 438.577 1056.02 493.706 1129.69 531.309C1217.26 576.016 1299.69 589.817 1381.68 573.498C1457.96 558.317 1521.52 528.973 1575.98 483.786C1623.03 444.751 1655.94 400.635 1687.77 357.973C1713.5 323.496 1737.8 290.932 1766.88 265.52C1772.83 260.321 1778.96 255.459 1785.1 251.071C1785.69 250.658 1786.42 250.496 1787.13 250.618C1787.84 250.741 1788.48 251.139 1788.9 251.726C1789.32 252.313 1789.49 253.042 1789.37 253.754C1789.26 254.467 1788.87 255.106 1788.29 255.533C1782.3 259.819 1776.31 264.569 1770.49 269.652C1741.85 294.68 1717.72 327.018 1692.17 361.254C1660.15 404.174 1627.03 448.555 1579.48 488.008C1524.3 533.792 1459.95 563.516 1382.76 578.88C1360.25 583.358 1337.71 585.606 1315.06 585.607V585.608Z" fill="#3D8AFF"/>
<path d="M1314.64 503.363C1266.65 503.363 1217.89 490.093 1164.61 462.896C1097.78 428.781 1031.44 376.088 967.283 325.13C899.018 270.908 828.429 214.84 752.964 176.934C666.551 133.532 585.038 120.296 503.763 136.47C435.907 149.975 377.279 177.419 324.526 220.375C278.787 257.619 243.446 301.215 209.267 343.375C179.021 380.688 150.451 415.932 116.46 444.65C98.4335 459.88 80.4618 471.961 61.519 481.583C60.8708 481.908 60.1201 481.963 59.4312 481.736C58.7424 481.509 58.1713 481.019 57.8431 480.372C57.5148 479.726 57.4559 478.975 57.6794 478.285C57.9028 477.595 58.3904 477.022 59.0355 476.691C77.5942 467.264 95.2202 455.412 112.919 440.458C146.515 412.075 174.925 377.026 205.005 339.92C239.359 297.543 274.882 253.724 321.061 216.121C374.525 172.586 433.938 144.773 502.693 131.089C585.211 114.668 667.881 128.058 755.426 172.031C831.398 210.191 902.212 266.438 970.697 320.834C1034.64 371.624 1100.76 424.144 1167.1 458.009C1238.53 494.471 1301.61 505.522 1365.62 492.782C1428.19 480.331 1479.92 456.555 1523.77 420.097C1563.19 387.326 1592.99 347.381 1621.82 308.751C1650.23 270.672 1677.06 234.711 1712.73 203.546C1736.85 182.468 1762.23 166.238 1790.32 153.932C1790.65 153.782 1791 153.699 1791.37 153.688C1791.73 153.677 1792.09 153.738 1792.43 153.868C1792.77 153.998 1793.08 154.194 1793.34 154.445C1793.61 154.695 1793.82 154.996 1793.96 155.329C1794.11 155.661 1794.19 156.02 1794.19 156.383C1794.2 156.746 1794.13 157.107 1794 157.445C1793.87 157.782 1793.67 158.09 1793.41 158.349C1793.16 158.609 1792.85 158.815 1792.52 158.957C1764.95 171.036 1740.04 186.973 1716.34 207.678C1681.11 238.459 1654.45 274.193 1626.22 312.026C1597.2 350.919 1567.19 391.13 1527.28 424.316C1482.7 461.373 1430.18 485.529 1366.69 498.164C1349.33 501.62 1332.03 503.364 1314.64 503.364V503.363Z" fill="#A2C7FF"/>
<path d="M1314.48 519.852C1263.95 519.852 1212.81 505.979 1157.13 477.556C1088.83 442.693 1021.84 389.48 957.046 338.02C820.947 229.919 680.217 118.14 506.977 152.613C441.818 165.58 385.538 191.921 334.919 233.139C290.503 269.306 255.707 312.228 222.055 353.739C186.515 397.581 152.959 438.976 109.971 470.779C109.386 471.194 108.66 471.363 107.951 471.249C107.242 471.136 106.606 470.749 106.179 470.172C105.752 469.595 105.568 468.873 105.667 468.162C105.766 467.451 106.14 466.807 106.708 466.368C149.136 434.979 182.479 393.848 217.779 350.301C251.621 308.557 286.598 265.409 331.454 228.885C382.784 187.087 439.848 160.378 505.906 147.232C681.636 112.262 823.381 224.844 960.46 333.723C1025.04 385.016 1091.81 438.056 1159.62 472.669C1234.52 510.905 1301 522.424 1368.83 508.925C1514.64 479.908 1575.83 397.904 1635.01 318.599C1662.88 281.239 1689.21 245.957 1723.56 215.941C1735.42 205.576 1747.93 196.239 1760.74 188.19C1761.36 187.813 1762.1 187.694 1762.8 187.859C1763.51 188.023 1764.12 188.459 1764.5 189.07C1764.88 189.681 1765.01 190.42 1764.85 191.125C1764.7 191.83 1764.27 192.444 1763.66 192.835C1751.1 200.732 1738.82 209.896 1727.17 220.074C1693.26 249.705 1667.1 284.76 1639.41 321.874C1579.61 402.015 1517.78 484.879 1369.91 514.307C1351.39 517.992 1332.97 519.852 1314.48 519.852V519.852Z" fill="#3D8AFF"/>
<path d="M24.9347 443.811C24.3009 443.812 23.6862 443.594 23.1953 443.193C22.7044 442.792 22.3675 442.233 22.2419 441.612C22.1162 440.991 22.2096 440.345 22.5062 439.785C22.8027 439.225 23.2841 438.784 23.8685 438.539C43.7522 430.159 62.4572 418.45 81.0516 402.739C108.482 379.563 132.862 350.418 159.62 317.488C160.084 316.941 160.744 316.598 161.459 316.532C162.173 316.466 162.884 316.683 163.441 317.135C163.998 317.587 164.355 318.24 164.437 318.952C164.519 319.665 164.318 320.381 163.878 320.948C136.944 354.098 112.386 383.447 84.5922 406.931C65.568 423.004 46.4021 434.997 25.9991 443.595C25.6516 443.741 25.2895 443.811 24.9347 443.811V443.811Z" fill="#3D8AFF"/>
<path d="M1314.95 536.266C1295.98 536.266 1276.91 534.41 1257.5 530.697C1222.56 524.016 1187.28 511.429 1149.64 492.215C1079.88 456.607 1012.23 402.873 946.809 350.908C880.228 298.026 811.381 243.342 739.711 207.079C701.213 187.6 665.045 174.873 629.142 168.168C588.874 160.648 549.964 160.841 510.19 168.756C370.696 196.518 301.624 281.722 234.829 364.121C180.172 431.544 128.548 495.226 42.1502 525.593C41.8093 525.717 41.4472 525.772 41.0848 525.755C40.7224 525.738 40.367 525.65 40.0391 525.495C39.7111 525.34 39.4172 525.121 39.1744 524.852C38.9315 524.582 38.7445 524.267 38.6242 523.925C38.5038 523.583 38.4526 523.22 38.4734 522.858C38.4942 522.496 38.5866 522.141 38.7453 521.815C38.904 521.489 39.1258 521.197 39.3979 520.957C39.67 520.717 39.987 520.534 40.3305 520.417C125.263 490.566 176.413 427.468 230.566 360.666C297.975 277.51 367.681 191.524 509.119 163.375C549.591 155.319 589.181 155.124 630.149 162.774C666.57 169.576 703.219 182.467 742.188 202.183C814.357 238.698 883.426 293.558 950.22 346.611C1015.43 398.409 1082.87 451.969 1152.14 487.329C1189.3 506.303 1224.11 518.726 1258.53 525.308C1297.07 532.678 1334.2 532.601 1372.05 525.07C1492.21 501.155 1555.7 442.437 1606.39 382.547C1613.59 374.047 1617.33 369.441 1625.46 357.926C1671.55 292.64 1710.47 247.294 1744.45 219.299C1774.91 194.213 1799.16 184.647 1823.38 176.302C1824.06 176.076 1824.81 176.129 1825.46 176.449C1826.1 176.77 1826.6 177.331 1826.83 178.013C1827.07 178.695 1827.02 179.442 1826.71 180.093C1826.4 180.743 1825.85 181.244 1825.17 181.489C1782.77 196.098 1734.72 212.657 1629.94 361.091C1621.69 372.784 1617.89 377.461 1610.58 386.093C1588.86 411.756 1558.59 444.784 1517.05 472.625C1475.37 500.556 1428.29 519.471 1373.12 530.45C1353.64 534.327 1334.34 536.266 1314.95 536.266V536.266Z" fill="#3D8AFF"/>
<path d="M92.8886 593.839C92.2573 593.84 91.6449 593.624 91.1548 593.226C90.6648 592.828 90.3269 592.273 90.1983 591.655C90.0697 591.037 90.1582 590.393 90.4489 589.833C90.7396 589.273 91.2147 588.83 91.794 588.579C125.294 574.021 156.162 554.694 186.162 529.491C228.468 493.948 262.032 452.542 294.491 412.5C325.168 374.659 356.877 335.544 393.812 305.468C411.42 291.13 430.298 278.959 449.924 269.291C450.248 269.13 450.6 269.035 450.96 269.01C451.321 268.985 451.683 269.032 452.025 269.148C452.367 269.263 452.683 269.445 452.955 269.683C453.227 269.921 453.449 270.211 453.609 270.535C453.768 270.859 453.862 271.212 453.885 271.572C453.908 271.933 453.86 272.295 453.742 272.636C453.625 272.978 453.442 273.294 453.202 273.564C452.963 273.835 452.672 274.056 452.347 274.214C433.093 283.699 414.564 295.645 397.277 309.722C360.783 339.44 329.254 378.33 298.764 415.941C266.131 456.198 232.399 497.812 189.692 533.692C159.281 559.24 127.974 578.839 93.9813 593.613C93.6246 593.766 93.2534 593.839 92.8886 593.839V593.839Z" fill="#3D8AFF"/>
<path d="M60.2791 481.882C59.6621 481.883 59.0627 481.676 58.5778 481.294C58.0929 480.912 57.7509 480.378 57.6071 479.778C57.4632 479.178 57.5258 478.547 57.7848 477.987C58.0439 477.427 58.4842 476.97 59.0346 476.692C77.5943 467.264 95.2203 455.413 112.92 440.458C146.516 412.075 174.926 377.026 205.005 339.92C239.359 297.543 274.882 253.723 321.061 216.12C374.525 172.586 433.938 144.773 502.693 131.089C518.729 127.897 534.993 125.812 551.033 124.89C551.758 124.852 552.467 125.102 553.008 125.586C553.548 126.069 553.875 126.747 553.916 127.471C553.958 128.195 553.711 128.907 553.23 129.449C552.749 129.992 552.073 130.322 551.349 130.367C535.561 131.274 519.551 133.328 503.763 136.47C435.907 149.975 377.279 177.419 324.526 220.375C278.787 257.619 243.446 301.215 209.267 343.375C179.021 380.688 150.451 415.932 116.46 444.65C98.4335 459.88 80.4618 471.961 61.5191 481.583C61.1213 481.785 60.697 481.882 60.2791 481.882V481.882Z" fill="#3D8AFF"/>
<path d="M1159 324.942C1158.46 324.942 1157.92 324.778 1157.47 324.47C1118.46 298.064 1078.06 265.972 1038.98 234.938C966.118 177.061 890.788 117.226 804.68 73.9741C767.582 55.3394 730.436 40.9248 694.275 31.1279C693.924 31.0361 693.596 30.8759 693.307 30.6564C693.019 30.437 692.777 30.1626 692.596 29.8492C692.414 29.5358 692.297 29.1895 692.25 28.8304C692.203 28.4713 692.227 28.1064 692.322 27.7568C692.417 27.4072 692.58 27.0799 692.801 26.7936C693.023 26.5073 693.3 26.2679 693.615 26.089C693.93 25.9101 694.277 25.7953 694.636 25.7513C694.996 25.7073 695.361 25.7349 695.709 25.8326C732.225 35.7246 769.716 50.2718 807.144 69.071C893.756 112.578 969.313 172.591 1042.38 230.63C1081.39 261.612 1121.71 293.637 1160.54 319.926C1161.03 320.256 1161.4 320.732 1161.59 321.286C1161.79 321.84 1161.8 322.442 1161.63 323.004C1161.46 323.565 1161.11 324.057 1160.64 324.406C1160.16 324.755 1159.59 324.943 1159 324.942V324.942Z" fill="#3D8AFF"/>
<path d="M60.2791 481.882C59.6621 481.883 59.0627 481.676 58.5778 481.294C58.0929 480.912 57.7509 480.378 57.6071 479.778C57.4632 479.178 57.5258 478.547 57.7848 477.987C58.0439 477.427 58.4842 476.97 59.0346 476.692C77.5943 467.264 95.2203 455.413 112.92 440.458C146.516 412.075 174.926 377.026 205.005 339.92C239.359 297.543 274.882 253.723 321.061 216.121C374.525 172.586 433.938 144.772 502.693 131.089C585.211 114.668 667.881 128.059 755.426 172.031C831.397 210.191 902.212 266.438 970.697 320.834C1034.64 371.624 1100.76 424.144 1167.1 458.009C1180.18 464.685 1193.14 470.577 1205.62 475.52C1205.96 475.653 1206.26 475.85 1206.52 476.101C1206.78 476.352 1206.99 476.651 1207.13 476.982C1207.27 477.312 1207.35 477.668 1207.36 478.028C1207.36 478.389 1207.3 478.746 1207.16 479.081C1207.03 479.416 1206.83 479.722 1206.58 479.981C1206.33 480.239 1206.03 480.446 1205.7 480.589C1205.37 480.732 1205.02 480.809 1204.66 480.814C1204.3 480.82 1203.94 480.754 1203.6 480.622C1190.96 475.614 1177.84 469.652 1164.61 462.896C1097.78 428.781 1031.44 376.088 967.283 325.13C899.018 270.908 828.429 214.84 752.964 176.934C666.551 133.532 585.038 120.296 503.763 136.47C435.907 149.975 377.279 177.419 324.526 220.375C278.787 257.619 243.446 301.215 209.267 343.375C179.021 380.688 150.451 415.932 116.46 444.65C98.4335 459.88 80.4618 471.961 61.52 481.583C61.1213 481.785 60.697 481.882 60.2791 481.882V481.882Z" fill="#3D8AFF"/>
<path d="M1516.56 658.526C1515.93 658.526 1515.31 658.306 1514.82 657.903C1514.33 657.5 1513.99 656.94 1513.87 656.317C1513.75 655.694 1513.84 655.048 1514.14 654.488C1514.44 653.928 1514.93 653.489 1515.52 653.247C1564.65 632.953 1608.49 606.527 1649.55 572.46C1675.35 551.059 1699.34 527.307 1722.92 499.85C1723.4 499.298 1724.07 498.956 1724.79 498.901C1725.52 498.846 1726.24 499.081 1726.79 499.555C1727.34 500.029 1727.68 500.702 1727.74 501.428C1727.79 502.153 1727.56 502.871 1727.08 503.423C1703.3 531.119 1679.09 555.081 1653.05 576.681C1611.56 611.107 1567.26 637.81 1517.61 658.318C1517.28 658.455 1516.92 658.526 1516.56 658.526H1516.56Z" fill="#9DC5FF"/>
<defs>
<linearGradient id="paint0_linear" x1="80.2387" y1="367.086" x2="970.746" y2="367.086" gradientUnits="userSpaceOnUse">
<stop/>
<stop offset="1"/>
</linearGradient>
<linearGradient id="paint1_linear" x1="56.9845" y1="419.786" x2="392.193" y2="419.786" gradientUnits="userSpaceOnUse">
<stop/>
<stop offset="1"/>
</linearGradient>
<linearGradient id="paint2_linear" x1="0.89326" y1="363.329" x2="736.263" y2="363.329" gradientUnits="userSpaceOnUse">
<stop/>
<stop offset="1"/>
</linearGradient>
<linearGradient id="paint3_linear" x1="38.4962" y1="341.465" x2="966.699" y2="341.465" gradientUnits="userSpaceOnUse">
<stop/>
<stop offset="1"/>
</linearGradient>
<linearGradient id="paint4_linear" x1="80.2387" y1="486.632" x2="220.49" y2="486.632" gradientUnits="userSpaceOnUse">
<stop/>
<stop offset="1"/>
</linearGradient>
</defs>
</svg>
